<svg width="131" height="1215" viewBox="0 0 131 1215" fill="none" xmlns="http://www.w3.org/2000/svg">
<circle cx="65.5" cy="65.5" r="62" stroke="#0D2F3F" stroke-width="7" stroke-dasharray="2 20"/>
<circle cx="65.5" cy="65.5" r="62" stroke="#0D2F3F" stroke-opacity="0.2" stroke-width="7" stroke-dasharray="2 20"/>
<ellipse cx="65.5" cy="66" rx="27.5" ry="28" fill="#0D2F3F"/>
<line x1="65" y1="138" x2="65" y2="438" stroke="#0D2F3F" stroke-width="2" stroke-dasharray="4 10"/>
<path d="M128.114 490.565C129.903 496.423 130.904 502.629 130.993 509.057L127.494 509.106C127.498 509.403 127.5 509.701 127.5 510C127.5 510.299 127.498 510.597 127.494 510.894L130.993 510.943C130.904 517.371 129.903 523.577 128.114 529.435L124.767 528.413C124.593 528.981 124.412 529.546 124.223 530.108L127.539 531.225C125.517 537.23 122.66 542.846 119.107 547.934L116.237 545.93C115.898 546.416 115.552 546.897 115.199 547.373L118.011 549.458C114.274 554.499 109.839 558.984 104.85 562.767L102.735 559.978C102.263 560.336 101.786 560.688 101.303 561.032L103.338 563.88C98.2786 567.494 92.6883 570.403 86.708 572.464L85.5676 569.155C85.008 569.347 84.4449 569.532 83.8783 569.709L84.922 573.05C79.0709 574.878 72.8688 575.902 66.4429 575.993L66.3931 572.494C66.0959 572.498 65.7982 572.5 65.5 572.5C65.2018 572.5 64.9041 572.498 64.6069 572.494L64.5571 575.993C58.1312 575.902 51.9291 574.878 46.078 573.05L47.1217 569.709C46.5551 569.532 45.9919 569.347 45.4324 569.155L44.292 572.464C38.3117 570.403 32.7214 567.494 27.6622 563.88L29.6966 561.032C29.2143 560.688 28.737 560.336 28.265 559.978L26.1501 562.767C21.1613 558.984 16.7262 554.499 12.9893 549.458L15.801 547.373C15.4483 546.897 15.1021 546.416 14.7626 545.93L11.8929 547.934C8.3404 542.846 5.48325 537.23 3.46059 531.225L6.77747 530.108C6.58839 529.546 6.40702 528.981 6.23347 528.413L2.88605 529.435C1.09721 523.577 0.0958775 517.371 0.00654775 510.943L3.50621 510.894C3.50207 510.597 3.5 510.299 3.5 510C3.5 509.701 3.50207 509.403 3.50621 509.106L0.00654774 509.057C0.0958775 502.629 1.09721 496.423 2.88605 490.565L6.23347 491.587C6.40702 491.019 6.58839 490.454 6.77747 489.892L3.46059 488.775C5.48325 482.77 8.3404 477.154 11.8929 472.066L14.7626 474.07C15.1021 473.584 15.4483 473.103 15.8011 472.627L12.9893 470.542C16.7262 465.501 21.1613 461.016 26.1501 457.233L28.265 460.022C28.737 459.664 29.2143 459.312 29.6966 458.968L27.6622 456.12C32.7214 452.506 38.3117 449.597 44.292 447.536L45.4324 450.845C45.992 450.653 46.5551 450.468 47.1217 450.291L46.078 446.95C51.9291 445.122 58.1312 444.098 64.5572 444.007L64.6069 447.506C64.9041 447.502 65.2018 447.5 65.5 447.5C65.7982 447.5 66.0959 447.502 66.3931 447.506L66.4429 444.007C72.8688 444.098 79.0709 445.122 84.922 446.95L83.8783 450.291C84.4449 450.468 85.008 450.653 85.5676 450.845L86.708 447.536C92.6883 449.597 98.2786 452.506 103.338 456.12L101.303 458.968C101.786 459.312 102.263 459.664 102.735 460.022L104.85 457.233C109.839 461.016 114.274 465.501 118.011 470.542L115.199 472.627C115.552 473.103 115.898 473.584 116.237 474.07L119.107 472.066C122.66 477.154 125.517 482.77 127.539 488.775L124.223 489.892C124.412 490.454 124.593 491.019 124.767 491.587L128.114 490.565Z" stroke="#0D2F3F" stroke-width="7" stroke-dasharray="2 20"/>
<path d="M128.114 490.565C129.903 496.423 130.904 502.629 130.993 509.057L127.494 509.106C127.498 509.403 127.5 509.701 127.5 510C127.5 510.299 127.498 510.597 127.494 510.894L130.993 510.943C130.904 517.371 129.903 523.577 128.114 529.435L124.767 528.413C124.593 528.981 124.412 529.546 124.223 530.108L127.539 531.225C125.517 537.23 122.66 542.846 119.107 547.934L116.237 545.93C115.898 546.416 115.552 546.897 115.199 547.373L118.011 549.458C114.274 554.499 109.839 558.984 104.85 562.767L102.735 559.978C102.263 560.336 101.786 560.688 101.303 561.032L103.338 563.88C98.2786 567.494 92.6883 570.403 86.708 572.464L85.5676 569.155C85.008 569.347 84.4449 569.532 83.8783 569.709L84.922 573.05C79.0709 574.878 72.8688 575.902 66.4429 575.993L66.3931 572.494C66.0959 572.498 65.7982 572.5 65.5 572.5C65.2018 572.5 64.9041 572.498 64.6069 572.494L64.5571 575.993C58.1312 575.902 51.9291 574.878 46.078 573.05L47.1217 569.709C46.5551 569.532 45.9919 569.347 45.4324 569.155L44.292 572.464C38.3117 570.403 32.7214 567.494 27.6622 563.88L29.6966 561.032C29.2143 560.688 28.737 560.336 28.265 559.978L26.1501 562.767C21.1613 558.984 16.7262 554.499 12.9893 549.458L15.801 547.373C15.4483 546.897 15.1021 546.416 14.7626 545.93L11.8929 547.934C8.3404 542.846 5.48325 537.23 3.46059 531.225L6.77747 530.108C6.58839 529.546 6.40702 528.981 6.23347 528.413L2.88605 529.435C1.09721 523.577 0.0958775 517.371 0.00654775 510.943L3.50621 510.894C3.50207 510.597 3.5 510.299 3.5 510C3.5 509.701 3.50207 509.403 3.50621 509.106L0.00654774 509.057C0.0958775 502.629 1.09721 496.423 2.88605 490.565L6.23347 491.587C6.40702 491.019 6.58839 490.454 6.77747 489.892L3.46059 488.775C5.48325 482.77 8.3404 477.154 11.8929 472.066L14.7626 474.07C15.1021 473.584 15.4483 473.103 15.8011 472.627L12.9893 470.542C16.7262 465.501 21.1613 461.016 26.1501 457.233L28.265 460.022C28.737 459.664 29.2143 459.312 29.6966 458.968L27.6622 456.12C32.7214 452.506 38.3117 449.597 44.292 447.536L45.4324 450.845C45.992 450.653 46.5551 450.468 47.1217 450.291L46.078 446.95C51.9291 445.122 58.1312 444.098 64.5572 444.007L64.6069 447.506C64.9041 447.502 65.2018 447.5 65.5 447.5C65.7982 447.5 66.0959 447.502 66.3931 447.506L66.4429 444.007C72.8688 444.098 79.0709 445.122 84.922 446.95L83.8783 450.291C84.4449 450.468 85.008 450.653 85.5676 450.845L86.708 447.536C92.6883 449.597 98.2786 452.506 103.338 456.12L101.303 458.968C101.786 459.312 102.263 459.664 102.735 460.022L104.85 457.233C109.839 461.016 114.274 465.501 118.011 470.542L115.199 472.627C115.552 473.103 115.898 473.584 116.237 474.07L119.107 472.066C122.66 477.154 125.517 482.77 127.539 488.775L124.223 489.892C124.412 490.454 124.593 491.019 124.767 491.587L128.114 490.565Z" stroke="#0D2F3F" stroke-opacity="0.2" stroke-width="7" stroke-dasharray="2 20"/>
<ellipse cx="65.5" cy="510" rx="27.5" ry="28" fill="#FF6600"/>
<circle cx="65.5" cy="959.5" r="62" stroke="#0D2F3F" stroke-width="7" stroke-dasharray="2 20"/>
<circle cx="65.5" cy="959.5" r="62" stroke="#0D2F3F" stroke-opacity="0.2" stroke-width="7" stroke-dasharray="2 20"/>
<circle cx="66" cy="959" r="28" fill="#4353FF"/>
<line x1="65" y1="583.997" x2="66.0274" y2="883.997" stroke="#0D2F3F" stroke-width="2" stroke-dasharray="4 10"/>
<line x1="65" y1="1039.01" x2="63.9942" y2="1214.01" stroke="#0D2F3F" stroke-width="2" stroke-dasharray="4 10"/>
</svg>
