<svg width="235" height="145" viewBox="0 0 235 145" fill="none" xmlns="http://www.w3.org/2000/svg">
<rect x="0.282318" y="100.41" width="82.1872" height="12.2668" rx="6.13338" transform="rotate(-57.6222 0.282318 100.41)" fill="#C4C4C4"/>
<rect x="6.56885" y="90.1825" width="82.1872" height="12.2668" rx="6.13338" transform="rotate(32.3778 6.56885 90.1825)" fill="#E7524E"/>
<rect x="234.168" y="48.7854" width="88.7376" height="13.2444" rx="6.62221" transform="rotate(123.245 234.168 48.7854)" fill="#C4C4C4"/>
<rect x="227.215" y="59.7241" width="88.7376" height="13.2444" rx="6.62221" transform="rotate(-146.755 227.215 59.7241)" fill="#E7524E"/>
<path d="M64.6601 65.0865C64.3551 63.5294 64.401 62.1129 64.7978 60.8368C65.191 59.5424 65.8744 58.467 66.8479 57.6106C67.8398 56.7506 69.0501 56.1806 70.479 55.9008C72.3292 55.5384 73.9375 55.6894 75.304 56.3538C76.6889 57.0146 77.7297 58.1042 78.4266 59.6225L75.7337 60.15C75.2979 59.2843 74.6524 58.6594 73.7973 58.2752C72.9605 57.8875 71.9925 57.8013 70.8934 58.0166C69.4646 58.2964 68.4074 59.0171 67.7218 60.1785C67.0327 61.3216 66.8639 62.7908 67.2156 64.586C67.5708 66.3995 68.2849 67.7148 69.3579 68.5318C70.431 69.3488 71.6819 69.6173 73.1108 69.3375C74.2099 69.1222 75.0756 68.6863 75.7079 68.0299C76.3401 67.3734 76.7004 66.542 76.7886 65.5356L79.4814 65.0082C79.3798 66.6259 78.816 68.0203 77.7899 69.1913C76.7603 70.3441 75.3387 71.0981 73.5252 71.4533C72.0963 71.7331 70.7604 71.6619 69.5174 71.2396C68.2927 70.8138 67.2541 70.0756 66.4016 69.0252C65.5492 67.9748 64.9687 66.6619 64.6601 65.0865ZM90.3807 68.1519C88.9702 68.4281 87.6251 68.3587 86.3454 67.9436C85.0841 67.5249 84.0089 66.7939 83.1198 65.7507C82.2454 64.6856 81.6558 63.3745 81.3508 61.8174C81.0494 60.2786 81.1136 58.8585 81.5435 57.5569C81.988 56.2335 82.7263 55.1473 83.7584 54.2984C84.7869 53.4312 86.0156 52.8577 87.4444 52.5778C88.8733 52.298 90.2275 52.3656 91.5072 52.7807C92.7833 53.1775 93.8658 53.8975 94.7549 54.9407C95.6624 55.9804 96.2686 57.2787 96.5735 58.8358C96.8785 60.3929 96.7996 61.8349 96.3367 63.162C95.8885 64.4671 95.141 65.5551 94.0942 66.4259C93.0474 67.2967 91.8096 67.872 90.3807 68.1519ZM89.9502 65.9536C90.8478 65.7778 91.6492 65.4021 92.3543 64.8265C93.0595 64.2509 93.5677 63.4951 93.879 62.5592C94.2085 61.6196 94.2549 60.5453 94.0181 59.3363C93.7813 58.1273 93.3422 57.1481 92.7009 56.3987C92.0596 55.6494 91.3147 55.1485 90.4664 54.8962C89.6145 54.6256 88.7398 54.5782 87.8421 54.754C86.9262 54.9334 86.1248 55.3091 85.438 55.8811C84.7658 56.4312 84.2833 57.1725 83.9904 58.1048C83.6975 59.0372 83.6694 60.1079 83.9062 61.3169C84.1466 62.5442 84.5692 63.5362 85.1739 64.2927C85.7969 65.0457 86.5252 65.5593 87.3587 65.8335C88.1887 66.0894 89.0526 66.1294 89.9502 65.9536ZM98.9216 58.3474C98.6202 56.8086 98.6679 55.4012 99.0647 54.1251C99.4579 52.8307 100.132 51.7571 101.087 50.9043C102.061 50.0479 103.225 49.4869 104.581 49.2214C105.753 48.9918 106.897 49.0531 108.012 49.4053C109.124 49.7392 110.031 50.2937 110.735 51.069L109.174 43.1004L111.702 42.6053L115.685 62.9389L113.157 63.434L112.602 60.6038C112.284 61.5983 111.696 62.4837 110.84 63.2601C109.98 64.0181 108.9 64.5245 107.6 64.7793C106.262 65.0412 104.98 64.95 103.751 64.5059C102.541 64.0581 101.508 63.2998 100.652 62.2311C99.7963 61.1624 99.2194 59.8678 98.9216 58.3474ZM111.677 55.8776C111.454 54.7419 111.032 53.7975 110.409 53.0446C109.786 52.2916 109.037 51.7724 108.163 51.4871C107.304 51.1798 106.408 51.1177 105.473 51.3006C104.539 51.4836 103.73 51.8703 103.047 52.4606C102.364 53.051 101.876 53.8123 101.583 54.7447C101.29 55.677 101.255 56.7111 101.477 57.8468C101.703 59.0009 102.129 59.9636 102.756 60.7349C103.379 61.4878 104.12 62.0179 104.979 62.3252C105.835 62.6142 106.729 62.6671 107.664 62.4842C108.598 62.3012 109.407 61.9145 110.09 61.3242C110.788 60.7119 111.283 59.9396 111.576 59.0073C111.866 58.0566 111.899 57.0134 111.677 55.8776ZM132.062 51.3143C132.155 51.7906 132.226 52.2997 132.275 52.8417L120.24 55.199C120.622 56.6649 121.354 57.7295 122.435 58.3927C123.53 59.0341 124.738 59.2256 126.057 58.9672C127.137 58.7555 127.987 58.3324 128.604 57.6979C129.236 57.0415 129.617 56.2632 129.745 55.3631L132.437 54.8357C132.318 56.3618 131.743 57.7012 130.714 58.854C129.68 59.9884 128.266 60.7314 126.471 61.083C125.042 61.3629 123.697 61.2935 122.436 60.8748C121.193 60.4525 120.136 59.7179 119.265 58.6711C118.391 57.606 117.801 56.2949 117.496 54.7378C117.191 53.1807 117.235 51.755 117.628 50.4606C118.022 49.1662 118.716 48.0982 119.711 47.2565C120.721 46.3929 121.959 45.8176 123.425 45.5305C124.854 45.2507 126.179 45.3145 127.4 45.7221C128.621 46.1296 129.632 46.8256 130.434 47.8099C131.25 48.7723 131.792 49.9404 132.062 51.3143ZM129.376 51.2981C129.19 50.3456 128.819 49.5716 128.265 48.9764C127.708 48.3628 127.028 47.9537 126.228 47.7492C125.441 47.5228 124.609 47.4956 123.729 47.6679C122.465 47.9154 121.463 48.5301 120.724 49.512C120.002 50.4902 119.717 51.7063 119.869 53.1603L129.376 51.2981ZM142.139 39.5826C141.662 39.6759 141.227 39.59 140.833 39.3248C140.438 39.0597 140.195 38.6889 140.101 38.2127C140.008 37.7364 140.094 37.3011 140.359 36.9068C140.624 36.5124 140.995 36.2686 141.471 36.1753C141.929 36.0856 142.346 36.1752 142.722 36.4439C143.117 36.7091 143.36 37.0798 143.454 37.5561C143.547 38.0323 143.461 38.4676 143.196 38.862C142.949 39.2527 142.597 39.4929 142.139 39.5826ZM143.827 41.7913L146.776 56.8492L144.275 57.339L141.326 42.2811L143.827 41.7913ZM151.542 42.4201L153.28 51.2954C153.424 52.0282 153.682 52.5198 154.054 52.7702C154.423 53.0023 154.992 53.043 155.762 52.8923L157.603 52.5317L158.017 54.6475L155.764 55.0888C154.372 55.3615 153.265 55.2454 152.443 54.7406C151.621 54.2358 151.067 53.2507 150.78 51.7852L149.041 42.9098L147.091 43.2919L146.687 41.2311L148.638 40.849L147.895 37.057L150.396 36.5673L151.138 40.3592L155.068 39.5896L155.471 41.6504L151.542 42.4201Z" fill="#FCFCFC"/>
<path d="M82.101 91.3054C82.1524 91.2763 82.2422 91.2492 82.3704 91.2241C82.6452 91.1703 82.8738 91.2206 83.0562 91.3751C83.2386 91.5296 83.3603 91.7625 83.4213 92.0739C83.5326 92.6418 83.5106 93.1121 83.3553 93.4849C83.1965 93.8394 82.9116 94.133 82.5007 94.3656C81.7118 94.8055 80.8411 95.1187 79.8886 95.3052C79.0825 95.4631 78.3008 95.5021 77.5433 95.4222C77.1807 96.3872 76.7685 97.3905 76.3068 98.432C75.7785 99.6197 75.2865 100.458 74.8306 100.947C74.393 101.432 73.8445 101.739 73.185 101.868C72.4523 102.012 71.838 101.837 71.342 101.345C70.8644 100.848 70.4525 99.9591 70.1061 98.6764L69.5759 96.6974C69.3094 98.3474 69.0261 99.6203 68.726 100.516C68.4442 101.408 68.1048 102.055 67.7079 102.456C67.3292 102.853 66.8376 103.111 66.2331 103.23C65.4821 103.377 64.8293 103.2 64.2748 102.7C63.7387 102.197 63.2919 101.324 62.9344 100.081C62.2123 97.5595 61.6628 95.337 61.2861 93.4136L61.0977 92.4519C60.9976 91.8438 61.08 91.3901 61.3447 91.091C61.6095 90.7919 62.0533 90.5813 62.6762 90.4593C63.1524 90.366 63.522 90.4078 63.7849 90.5845C64.0625 90.7394 64.2497 91.0641 64.3466 91.5587C64.7592 93.6654 65.4239 96.3789 66.3405 99.6993C67.0731 96.8357 67.6834 93.882 68.1714 90.8381C68.2653 90.2491 68.4317 89.8361 68.6706 89.5991C68.9242 89.3401 69.2525 89.1712 69.6555 89.0923C70.1501 88.9954 70.5088 89.0298 70.7314 89.1954C70.9724 89.3575 71.1431 89.6949 71.2436 90.2079C71.6562 92.3145 72.3208 95.028 73.2375 98.3484C74.0173 96.5028 74.5868 95.0407 74.9462 93.9622C74.5674 93.4847 74.3062 92.8797 74.1627 92.1469C74.0407 91.5241 74.0597 90.8927 74.2197 90.2526C74.3796 89.6126 74.6619 89.0628 75.0664 88.6031C75.4709 88.1435 75.9755 87.8544 76.58 87.736C77.1112 87.632 77.5794 87.74 77.9845 88.0601C78.3859 88.3619 78.6567 88.87 78.7966 89.5844C78.958 90.4088 78.923 91.3952 78.6915 92.5438C79.3804 92.3709 80.2786 92.0523 81.386 91.5881L82.101 91.3054ZM83.2149 84.5819C82.4455 84.7326 81.8344 84.6716 81.3815 84.3989C80.9251 84.1079 80.6341 83.6418 80.5085 83.0006C80.3829 82.3595 80.5262 81.7798 80.9382 81.2616C81.365 80.7215 81.954 80.3779 82.705 80.2308C83.3828 80.098 83.9647 80.1552 84.4506 80.4025C84.9365 80.6497 85.2387 81.0755 85.3571 81.68C85.5006 82.4128 85.3773 83.0456 84.9871 83.5786C84.5933 84.0932 84.0026 84.4276 83.2149 84.5819ZM85.8852 99.3806C84.6945 99.6138 83.7418 99.3629 83.0272 98.6279C82.3309 97.8893 81.8464 96.8239 81.5738 95.4317C81.4123 94.6073 81.3067 93.5343 81.2571 92.2125C81.2222 90.8688 81.2601 89.606 81.371 88.424C81.4211 87.8055 81.5619 87.3594 81.7937 87.0858C82.0254 86.8121 82.4435 86.6161 83.048 86.4977C83.9823 86.3147 84.5104 86.5346 84.6324 87.1575C84.7221 87.6154 84.7562 88.712 84.7346 90.4472C84.6896 92.5483 84.7371 93.9561 84.877 94.6705C84.9847 95.2201 85.1405 95.6271 85.3444 95.8915C85.5484 96.1559 85.8244 96.254 86.1725 96.1858C86.5022 96.1212 86.8695 95.8115 87.2744 95.2567C87.6793 94.7018 88.1971 93.8491 88.8276 92.6984C88.9972 92.3989 89.2194 92.2222 89.4942 92.1684C89.7323 92.1218 89.9371 92.1958 90.1083 92.3905C90.2979 92.5816 90.4304 92.8695 90.5058 93.2542C90.6493 93.987 90.5865 94.5889 90.3174 95.0601C88.938 97.6319 87.4606 99.072 85.8852 99.3806ZM100.296 90.0528C100.534 90.0061 100.738 90.0802 100.91 90.2749C101.099 90.466 101.232 90.7539 101.307 91.1386C101.451 91.8713 101.388 92.4733 101.119 92.9445C100.521 94.0697 99.8163 95.0352 99.0041 95.841C98.1918 96.6468 97.1812 97.1681 95.9721 97.4049C92.2351 98.1369 89.8518 95.8741 88.822 90.6167C88.6642 89.8107 88.532 88.9901 88.4255 88.155L87.3538 88.3649C86.8043 88.4725 86.409 88.4453 86.168 88.2833C85.9454 88.1177 85.791 87.815 85.7049 87.3754C85.504 86.3495 85.8157 85.7559 86.64 85.5944L88.2062 85.2877C88.123 83.2116 88.2387 81.2773 88.5533 79.4847C88.868 77.6922 89.3772 76.2134 90.0811 75.0484C90.8033 73.8798 91.6864 73.1932 92.7306 72.9887C93.5 72.838 94.1709 73.0585 94.7433 73.6502C95.3157 74.2418 95.7023 75.0506 95.9033 76.0764C96.4594 78.9158 95.7531 81.6221 93.7843 84.1951L96.8618 83.5923C97.1549 83.5349 97.3781 83.5578 97.5314 83.6609C97.6848 83.764 97.7956 83.9896 97.8637 84.3377C98.1113 85.6016 97.2001 86.4364 95.1301 86.8418L91.7778 87.4984C91.9205 88.4215 92.0421 89.1395 92.1426 89.6524C92.5158 91.5576 92.9975 92.8518 93.5878 93.535C94.1965 94.2147 94.9863 94.4595 95.9572 94.2693C96.7449 94.115 97.3943 93.7406 97.9056 93.1459C98.4168 92.5512 98.9913 91.6968 99.629 90.5828C99.7986 90.2833 100.021 90.1066 100.296 90.0528ZM92.5054 75.7719C92.2306 75.8257 91.9873 76.2348 91.7756 76.999C91.5786 77.7414 91.4446 78.7568 91.3736 80.0451C91.3173 81.3115 91.3337 82.7064 91.4229 84.2297C92.3207 83.0837 92.9222 81.8817 93.2274 80.6236C93.5473 79.3435 93.614 78.2272 93.4274 77.2747C93.2157 76.1939 92.9084 75.6929 92.5054 75.7719ZM107.247 81.758C107.833 81.6432 108.303 81.7127 108.657 81.9668C109.026 82.1989 109.268 82.608 109.383 83.1942C109.476 83.6705 109.551 84.5878 109.608 85.9462C109.644 87.0996 109.705 88.1907 109.793 89.2198C109.877 90.2305 110.039 91.3496 110.279 92.5769C110.415 93.273 110.368 93.8055 110.135 94.1743C109.918 94.5212 109.489 94.7575 108.848 94.883C108.243 95.0014 107.773 94.9318 107.437 94.6743C107.101 94.4167 106.873 93.9764 106.751 93.3536C106.607 92.6209 106.499 91.3867 106.425 89.6512C106.358 88.1426 106.285 87.1869 106.206 86.7838C106.148 86.4908 106.019 86.3639 105.817 86.4034C105.579 86.45 105.301 86.8278 104.984 87.5368C104.662 88.2274 104.381 89.1195 104.138 90.2132C103.896 91.3068 103.747 92.4393 103.691 93.6105C103.658 94.5109 103.535 95.1438 103.321 95.509C103.122 95.8524 102.738 96.0796 102.171 96.1909C101.603 96.3021 101.142 96.1831 100.788 95.8339C100.449 95.4628 100.15 94.8558 99.8893 94.0127C99.6291 93.1697 99.3358 91.9147 99.0093 90.2477C98.4567 87.4266 98.1648 84.4309 98.1335 81.2604C98.1205 78.0864 98.47 75.355 99.182 73.0661C99.9087 70.7553 101.06 69.4457 102.635 69.1371C103.478 68.972 104.227 69.2057 104.884 69.8379C105.555 70.4483 106.004 71.3305 106.23 72.4846C106.592 74.3348 106.428 76.3641 105.739 78.5725C105.045 80.7626 103.741 83.4244 101.824 86.5577C101.956 87.5211 102.121 88.5065 102.318 89.514C102.617 87.8385 103.039 86.4436 103.581 85.3292C104.138 84.1929 104.733 83.3441 105.365 82.7828C106.015 82.218 106.643 81.8764 107.247 81.758ZM102.591 71.9704C102.261 72.035 101.988 72.5831 101.772 73.6146C101.552 74.6277 101.407 75.978 101.338 77.6654C101.284 79.3309 101.323 81.1303 101.454 83.0638C102.328 81.5041 102.977 79.8648 103.401 78.1459C103.844 76.4234 103.939 74.921 103.688 73.6387C103.573 73.0525 103.421 72.6162 103.232 72.3299C103.043 72.0436 102.829 71.9238 102.591 71.9704ZM136.372 67.4653C136.479 68.0149 136.441 68.4504 136.257 68.7718C136.091 69.0896 135.751 69.2988 135.238 69.3993C135.277 69.7911 135.325 70.4759 135.384 71.4536C135.452 72.7718 135.491 73.5059 135.501 73.6561C136.25 86.1206 134.041 92.8588 128.875 93.8706C127.355 94.1684 126.08 93.9711 125.05 93.2788C124.039 92.5829 123.406 91.5846 123.151 90.284C122.695 87.9575 123.283 85.7121 124.913 83.5477C126.54 81.365 128.851 79.3717 131.845 77.5678C131.792 76.2277 131.72 75.034 131.629 73.9866L131.311 69.7406C130.19 69.8459 129.153 69.9919 128.201 70.1785C125.654 70.6772 123.825 71.2923 122.713 72.0237C121.601 72.7551 121.154 73.6795 121.373 74.7969C121.481 75.3465 121.781 75.906 122.273 76.4754C122.418 76.637 122.511 76.8186 122.55 77.0201C122.626 77.4048 122.492 77.7923 122.15 78.1827C121.823 78.5511 121.431 78.7802 120.973 78.8699C120.386 78.9847 119.889 78.8253 119.481 78.3917C118.803 77.6495 118.354 76.7197 118.136 75.6023C117.274 71.2058 120.691 68.2541 128.385 66.7471C130.619 66.3094 132.659 66.1382 134.504 66.2334C135.598 66.2853 136.221 66.696 136.372 67.4653ZM128.657 90.8605C129.554 90.6847 130.319 89.8311 130.951 88.2997C131.583 86.7683 131.906 84.2418 131.92 80.7201C127.835 83.5556 126.07 86.3931 126.626 89.2325C126.748 89.8553 126.989 90.3121 127.351 90.6027C127.708 90.875 128.144 90.961 128.657 90.8605ZM151.012 80.1193C151.25 80.0727 151.454 80.1467 151.626 80.3414C151.815 80.5325 151.948 80.8204 152.023 81.2051C152.167 81.9379 152.104 82.5398 151.835 83.011C151.318 83.9681 150.506 84.9167 149.396 85.8568C148.305 86.7933 147.055 87.3997 145.644 87.6759C143.721 88.0527 142.125 87.823 140.858 86.9869C139.591 86.1509 138.78 84.8261 138.425 83.0125C138.177 81.7486 138.213 80.5242 138.533 79.3393C138.849 78.1361 139.411 77.1225 140.22 76.2983C141.047 75.4706 142.056 74.9401 143.247 74.7069C144.309 74.4988 145.224 74.6526 145.99 75.1681C146.753 75.6654 147.241 76.4544 147.453 77.5352C147.7 78.7992 147.456 79.9788 146.719 81.0742C145.997 82.1476 144.608 83.1616 142.55 84.1162C143.173 84.8692 144.126 85.1201 145.408 84.8689C146.232 84.7075 147.111 84.2406 148.044 83.4682C148.992 82.6739 149.759 81.7342 150.345 80.6493C150.515 80.3498 150.737 80.1731 151.012 80.1193ZM143.307 77.4913C142.629 77.624 142.129 78.1309 141.807 79.0119C141.503 79.8893 141.461 80.8867 141.68 82.0041L141.691 82.0591C142.721 81.5909 143.498 81.0394 144.02 80.4045C144.542 79.7696 144.737 79.1132 144.604 78.4354C144.536 78.0874 144.382 77.8323 144.141 77.6703C143.915 77.4864 143.637 77.4267 143.307 77.4913ZM152.722 86.2897C152.026 86.426 151.459 86.1565 151.023 85.4812C150.604 84.8022 150.237 83.6568 149.922 82.0447C149.455 79.6633 149.351 77.3346 149.609 75.0586C149.67 74.495 149.86 74.0583 150.18 73.7484C150.514 73.4166 151.02 73.1843 151.698 73.0516C152.064 72.9798 152.33 72.9754 152.494 73.0383C152.659 73.1011 152.766 73.2608 152.816 73.5173C152.874 73.8104 152.866 74.4968 152.792 75.5764C152.752 76.345 152.731 77.0149 152.729 77.586C152.727 78.1571 152.768 78.8528 152.852 79.6732C153.148 77.9794 153.575 76.5643 154.132 75.428C154.69 74.2917 155.284 73.4429 155.916 72.8816C156.566 72.3168 157.194 71.9752 157.798 71.8568C158.989 71.6235 159.701 72.1023 159.934 73.293C159.981 73.5311 160.011 74.1243 160.026 75.0725C160.023 75.834 160.039 76.3063 160.075 76.4895C160.201 77.1306 160.492 77.4064 160.95 77.3167C161.463 77.2162 162.044 76.684 162.692 75.7201C162.884 75.4354 163.108 75.2679 163.364 75.2176C163.602 75.171 163.807 75.245 163.978 75.4397C164.164 75.6125 164.291 75.8729 164.359 76.221C164.492 76.8988 164.413 77.4659 164.122 77.9224C163.713 78.5541 163.198 79.1304 162.578 79.6515C161.972 80.1506 161.284 80.4755 160.514 80.6262C159.544 80.8164 158.753 80.7144 158.143 80.3202C157.552 79.9225 157.174 79.3023 157.009 78.4597C156.955 78.1849 156.928 77.9047 156.93 77.6192C156.894 77.2456 156.864 76.9947 156.839 76.8665C156.782 76.5734 156.652 76.4466 156.451 76.4861C156.176 76.5399 155.871 76.9231 155.535 77.6356C155.214 78.3262 154.932 79.2183 154.689 80.312C154.447 81.4056 154.298 82.538 154.242 83.7093C154.209 84.6097 154.086 85.2426 153.872 85.6078C153.673 85.9511 153.29 86.1784 152.722 86.2897ZM165.226 83.8404C164.53 83.9768 163.964 83.7073 163.527 83.032C163.109 82.353 162.742 81.2075 162.426 79.5955C161.96 77.2141 161.856 74.8854 162.113 72.6093C162.174 72.0458 162.365 71.6091 162.684 71.2992C163.019 70.9674 163.525 70.7351 164.203 70.6023C164.569 70.5306 164.834 70.5262 164.999 70.589C165.163 70.6519 165.271 70.8116 165.321 71.0681C165.378 71.3612 165.37 72.0475 165.296 73.1272C165.257 73.8958 165.236 74.5657 165.233 75.1368C165.231 75.7079 165.272 76.4036 165.357 77.224C165.653 75.5302 166.08 74.1151 166.637 72.9788C167.194 71.8425 167.789 70.9937 168.421 70.4324C169.071 69.8676 169.698 69.526 170.303 69.4076C171.493 69.1743 172.205 69.6531 172.439 70.8438C172.485 71.0819 172.516 71.6751 172.53 72.6233C172.527 73.3848 172.544 73.8571 172.58 74.0403C172.705 74.6814 172.997 74.9572 173.455 74.8675C173.968 74.767 174.548 74.2348 175.197 73.2709C175.388 72.9861 175.612 72.8186 175.869 72.7684C176.107 72.7218 176.311 72.7958 176.483 72.9905C176.669 73.1633 176.796 73.4237 176.864 73.7718C176.997 74.4496 176.918 75.0167 176.627 75.4731C176.218 76.1048 175.703 76.6812 175.082 77.2022C174.476 77.7014 173.788 78.0263 173.019 78.177C172.048 78.3671 171.258 78.2652 170.648 77.871C170.057 77.4733 169.678 76.8531 169.513 76.0104C169.459 75.7357 169.433 75.4555 169.434 75.17C169.399 74.7964 169.369 74.5455 169.344 74.4173C169.286 74.1242 169.157 73.9974 168.955 74.0368C168.681 74.0907 168.375 74.4738 168.039 75.1864C167.718 75.877 167.436 76.7691 167.194 77.8628C166.952 78.9564 166.803 80.0888 166.747 81.2601C166.714 82.1605 166.59 82.7934 166.377 83.1586C166.178 83.5019 165.794 83.7292 165.226 83.8404ZM182.862 66.9476C183.284 66.8651 183.588 66.8626 183.774 66.9402C183.96 67.0178 184.079 67.1849 184.129 67.4413C184.215 67.881 184.284 69.4939 184.335 72.28C184.419 74.9454 184.472 76.5235 184.492 77.0141C184.736 81.8547 184.532 85.7656 183.879 88.7466C183.227 91.7276 181.911 93.4118 179.933 93.7993C178.999 93.9823 178.181 93.8381 177.48 93.3667C176.783 92.9137 176.342 92.22 176.159 91.2858C175.991 90.4248 176.011 89.5078 176.22 88.5349C176.447 87.5583 176.977 86.3798 177.81 84.9993C178.665 83.6336 179.925 82.0077 181.591 80.1216L181.549 79.4735C181.545 78.7706 181.501 77.771 181.419 76.4747C181.311 77.8654 180.995 78.9734 180.472 79.7987C179.945 80.6056 179.315 81.0809 178.583 81.2244C177.758 81.3859 177.007 81.1431 176.329 80.4961C175.665 79.8271 175.222 78.9248 175 77.7891C174.73 76.4152 174.576 75.1424 174.537 73.9708C174.494 72.7808 174.558 71.5034 174.728 70.1386C174.804 69.5532 174.983 69.1091 175.266 68.8064C175.549 68.5036 176.048 68.2823 176.762 68.1424C177.165 68.0634 177.453 68.0737 177.624 68.1733C177.814 68.2692 177.934 68.4454 177.985 68.7019C178.013 68.8484 178.009 69.3627 177.973 70.2449C177.923 70.9585 177.896 71.6009 177.894 72.172C177.894 72.9518 177.908 73.7005 177.934 74.4181C177.957 75.1174 178.012 75.6869 178.098 76.1265C178.234 76.8226 178.495 77.133 178.879 77.0577C179.154 77.0039 179.439 76.6627 179.735 76.0342C180.048 75.4021 180.325 74.4825 180.564 73.2754C180.821 72.0647 181.01 70.6011 181.13 68.8846C181.169 68.3063 181.312 67.8694 181.558 67.5739C181.823 67.2748 182.258 67.066 182.862 66.9476ZM179.713 91.0748C180.171 90.9851 180.58 90.3534 180.94 89.1797C181.3 88.006 181.521 86.127 181.605 83.5428C180.427 85.0097 179.613 86.2915 179.162 87.3879C178.733 88.4991 178.59 89.4211 178.734 90.1538C178.795 90.4653 178.9 90.711 179.049 90.8909C179.217 91.0673 179.438 91.1286 179.713 91.0748Z" fill="#E7524E"/>
<rect width="52.2192" height="1.5207" rx="0.760348" transform="matrix(0.978202 -0.207657 -0.207657 -0.978202 72.3158 72.3312)" fill="#E7524E"/>
</svg>
