<svg width="255" height="181" viewBox="0 0 255 181" fill="none" xmlns="http://www.w3.org/2000/svg">
<rect x="7.31238" y="99.6557" width="82.1872" height="12.2668" rx="6.13338" transform="rotate(-48.5686 7.31238 99.6557)" fill="#C4C4C4"/>
<rect x="15.13" y="90.5448" width="82.1872" height="12.2668" rx="6.13338" transform="rotate(41.4314 15.13 90.5448)" fill="#E7524E"/>
<rect x="246.408" y="85.478" width="88.7376" height="13.2444" rx="6.62221" transform="rotate(132.298 246.408 85.478)" fill="#C4C4C4"/>
<rect x="237.82" y="95.1862" width="88.7376" height="13.2444" rx="6.62221" transform="rotate(-137.702 237.82 95.1862)" fill="#E7524E"/>
<path d="M76.4465 74.9026C76.3904 73.3169 76.6586 71.9252 77.2513 70.7275C77.8433 69.5111 78.6873 68.5566 79.7835 67.8641C80.8983 67.1708 82.1833 66.7985 83.6384 66.7469C85.5225 66.6802 87.0871 67.0824 88.332 67.9536C89.5956 68.824 90.4521 70.0638 90.9013 71.673L88.159 71.7701C87.8648 70.8466 87.3257 70.1279 86.5417 69.614C85.7763 69.0994 84.834 68.8619 83.7147 68.9016C82.2596 68.9531 81.1022 69.4984 80.2424 70.5375C79.382 71.5579 78.9842 72.9822 79.0489 74.8104C79.1143 76.6573 79.6126 78.0685 80.5437 79.0442C81.4748 80.0198 82.6679 80.4819 84.123 80.4304C85.2423 80.3907 86.1658 80.0965 86.8935 79.5477C87.6212 78.999 88.1078 78.2346 88.3533 77.2546L91.0955 77.1575C90.7406 78.7391 89.9644 80.0273 88.7669 81.0224C87.5687 81.9987 86.0462 82.5196 84.1993 82.585C82.7442 82.6365 81.4361 82.356 80.2751 81.7434C79.1326 81.1301 78.2232 80.2377 77.5466 79.0663C76.87 77.8948 76.5034 76.5069 76.4465 74.9026ZM101.364 81.9771C99.9279 82.0279 98.6105 81.7477 97.4121 81.1364C96.2324 80.5245 95.2856 79.6334 94.5717 78.4633C93.8759 77.2738 93.4999 75.8863 93.4437 74.3006C93.3882 72.7336 93.6751 71.3412 94.3044 70.1235C94.9517 68.8865 95.8517 67.9301 97.0045 67.2542C98.1567 66.5596 99.4603 66.1866 100.915 66.135C102.37 66.0835 103.697 66.3634 104.896 66.9747C106.093 67.5673 107.049 68.4487 107.763 69.6189C108.495 70.7883 108.89 72.1659 108.946 73.7516C109.002 75.3372 108.697 76.7489 108.031 77.9866C107.383 79.205 106.474 80.1618 105.303 80.857C104.132 81.5522 102.819 81.9255 101.364 81.9771ZM101.285 79.7385C102.199 79.7061 103.05 79.4612 103.837 79.0037C104.624 78.5462 105.244 77.8798 105.699 77.0045C106.172 76.1286 106.387 75.075 106.344 73.8437C106.3 72.6125 106.02 71.5764 105.505 70.7355C104.99 69.8945 104.333 69.2827 103.535 68.9001C102.736 68.4987 101.88 68.3143 100.966 68.3466C100.033 68.3797 99.1824 68.6246 98.4141 69.0814C97.6638 69.5189 97.0706 70.175 96.6346 71.0496C96.1986 71.9243 96.0025 72.9772 96.0461 74.2084C96.0903 75.4583 96.3515 76.5044 96.8296 77.3467C97.3264 78.1883 97.9648 78.8101 98.7449 79.2121C99.5242 79.5954 100.371 79.7709 101.285 79.7385ZM111.342 73.6387C111.286 72.0717 111.555 70.6893 112.147 69.4916C112.739 68.2752 113.574 67.3211 114.652 66.6292C115.748 65.9366 116.986 65.5659 118.367 65.517C119.56 65.4747 120.68 65.7152 121.726 66.2385C122.771 66.7432 123.58 67.4336 124.153 68.3099L123.866 60.195L126.44 60.1038L127.173 80.8108L124.599 80.902L124.497 78.0198C124.026 78.9518 123.306 79.7337 122.339 80.3657C121.37 80.979 120.224 81.3091 118.9 81.356C117.538 81.4043 116.285 81.1124 115.142 80.4805C114.018 79.8479 113.117 78.9365 112.44 77.7464C111.763 76.5563 111.396 75.1871 111.342 73.6387ZM124.326 73.2068C124.286 72.0502 124.017 71.0511 123.52 70.2095C123.023 69.3679 122.366 68.7374 121.548 68.3181C120.748 67.8795 119.872 67.677 118.921 67.7107C117.969 67.7444 117.11 67.999 116.342 68.4745C115.574 68.95 114.973 69.625 114.537 70.4997C114.101 71.3743 113.903 72.3899 113.944 73.5465C113.986 74.7218 114.255 75.7396 114.753 76.5998C115.249 77.4414 115.898 78.0816 116.698 78.5202C117.497 78.9402 118.373 79.1333 119.324 79.0996C120.275 79.0659 121.135 78.8113 121.903 78.3359C122.688 77.8411 123.299 77.1564 123.735 76.2817C124.17 75.3884 124.367 74.3635 124.326 73.2068ZM145.175 71.9081C145.193 72.3931 145.183 72.9071 145.146 73.4501L132.89 73.8842C133.036 75.3919 133.591 76.5584 134.555 77.3834C135.536 78.1892 136.698 78.5683 138.041 78.5208C139.142 78.4818 140.047 78.1976 140.757 77.6681C141.484 77.1193 141.982 76.4106 142.25 75.5419L144.993 75.4448C144.634 76.9331 143.856 78.1654 142.658 79.1417C141.459 80.0994 139.946 80.6107 138.117 80.6754C136.662 80.7269 135.345 80.4467 134.165 79.8348C133.004 79.2221 132.076 78.3304 131.381 77.1596C130.685 75.9702 130.309 74.5826 130.253 72.997C130.196 71.4113 130.464 70.0103 131.056 68.7939C131.648 67.5775 132.502 66.632 133.618 65.9575C134.751 65.2636 136.064 64.8902 137.556 64.8373C139.012 64.7858 140.31 65.0574 141.452 65.652C142.593 66.2466 143.483 67.093 144.119 68.1912C144.774 69.27 145.126 70.509 145.175 71.9081ZM142.526 71.4696C142.492 70.4995 142.248 69.677 141.794 69.0019C141.34 68.3083 140.734 67.7974 139.975 67.4694C139.234 67.122 138.416 66.9642 137.521 66.996C136.234 67.0415 135.148 67.4909 134.262 68.3441C133.396 69.1967 132.923 70.3528 132.844 71.8125L142.526 71.4696ZM156.973 61.9083C156.488 61.9254 156.072 61.7721 155.724 61.4482C155.376 61.1243 155.194 60.7198 155.177 60.2348C155.16 59.7498 155.313 59.3334 155.637 58.9857C155.961 58.638 156.365 58.4556 156.85 58.4384C157.317 58.4219 157.714 58.5759 158.043 58.9005C158.391 59.2244 158.573 59.6289 158.591 60.1139C158.608 60.5989 158.454 61.0153 158.13 61.363C157.825 61.71 157.439 61.8917 156.973 61.9083ZM158.292 64.3551L158.836 79.6895L156.289 79.7797L155.746 64.4453L158.292 64.3551ZM165.813 66.1901L166.133 75.2284C166.159 75.9746 166.337 76.5007 166.665 76.8066C166.993 77.0938 167.548 77.2236 168.332 77.1958L170.207 77.1294L170.283 79.2841L167.988 79.3653C166.571 79.4155 165.496 79.1267 164.764 78.4989C164.032 77.8711 163.639 76.811 163.586 75.3186L163.266 66.2803L161.28 66.3506L161.205 64.2519L163.192 64.1816L163.055 60.32L165.602 60.2298L165.738 64.0914L169.74 63.9497L169.814 66.0484L165.813 66.1901Z" fill="#FCFCFC"/>
<path d="M89.5444 103.539C89.5997 103.519 89.6927 103.506 89.8232 103.501C90.1031 103.491 90.3209 103.577 90.4768 103.758C90.6326 103.94 90.7161 104.189 90.7274 104.506C90.7479 105.084 90.6521 105.545 90.4401 105.889C90.2275 106.214 89.9 106.459 89.4576 106.624C88.6093 106.934 87.7002 107.107 86.7301 107.141C85.9093 107.17 85.1312 107.086 84.3957 106.888C83.8858 107.784 83.3208 108.709 82.701 109.665C81.9924 110.755 81.3746 111.505 80.8475 111.916C80.339 112.327 79.749 112.544 79.0774 112.567C78.3312 112.594 77.752 112.325 77.3397 111.76C76.9462 111.195 76.6793 110.252 76.5391 108.931L76.3268 106.893C75.804 108.481 75.324 109.693 74.8867 110.53C74.468 111.367 74.0311 111.952 73.576 112.286C73.1395 112.619 72.6135 112.796 71.9978 112.818C71.233 112.845 70.6161 112.568 70.1473 111.987C69.6971 111.405 69.3932 110.473 69.2357 109.19C68.9193 106.586 68.7265 104.305 68.6571 102.346L68.6224 101.366C68.6193 100.75 68.7719 100.315 69.0805 100.061C69.389 99.8077 69.8604 99.6695 70.4947 99.6471C70.9797 99.6299 71.3382 99.7293 71.5699 99.9452C71.8197 100.142 71.9535 100.492 71.9714 100.996C72.0474 103.141 72.2767 105.925 72.6594 109.349C73.8335 106.636 74.901 103.815 75.8619 100.886C76.0473 100.319 76.2766 99.9373 76.5498 99.7408C76.841 99.5251 77.1919 99.4099 77.6023 99.3954C78.1059 99.3775 78.4547 99.4679 78.6485 99.6665C78.861 99.8644 78.9765 100.225 78.995 100.747C79.071 102.892 79.3003 105.677 79.683 109.1C80.7435 107.4 81.5361 106.046 82.0607 105.037C81.7618 104.506 81.599 103.867 81.5726 103.121C81.5502 102.487 81.6683 101.866 81.9269 101.259C82.1856 100.653 82.5509 100.154 83.0227 99.7637C83.4945 99.3735 84.0382 99.1674 84.6538 99.1456C85.1948 99.1265 85.6402 99.3068 85.9898 99.6867C86.3388 100.048 86.5262 100.592 86.552 101.32C86.5817 102.159 86.3919 103.128 85.9825 104.226C86.69 104.163 87.6272 103.99 88.7938 103.706L89.5444 103.539ZM91.7024 97.0748C90.9189 97.1026 90.325 96.9462 89.9207 96.6056C89.5157 96.2464 89.3017 95.7403 89.2786 95.0874C89.2554 94.4345 89.4881 93.8845 89.9766 93.4376C90.4831 92.9714 91.1188 92.7248 91.8836 92.6977C92.5739 92.6732 93.1394 92.8213 93.5804 93.1419C94.0214 93.4625 94.2527 93.9306 94.2745 94.5462C94.301 95.2924 94.0796 95.898 93.6104 96.3629C93.1406 96.8091 92.5046 97.0464 91.7024 97.0748ZM92.0108 112.109C90.7982 112.152 89.8969 111.755 89.3068 110.916C88.7355 110.077 88.4247 108.949 88.3744 107.531C88.3447 106.692 88.4093 105.615 88.5683 104.302C88.7452 102.97 88.9814 101.729 89.2769 100.579C89.4237 99.976 89.633 99.5576 89.9049 99.3239C90.1768 99.0901 90.6206 98.9623 91.2362 98.9405C92.1876 98.9068 92.6745 99.2071 92.697 99.8414C92.7135 100.308 92.5746 101.396 92.2803 103.106C91.9052 105.174 91.7306 106.572 91.7564 107.299C91.7762 107.859 91.866 108.285 92.0258 108.579C92.1856 108.872 92.4427 109.012 92.7972 109C93.133 108.988 93.5445 108.74 94.0316 108.255C94.5188 107.771 95.1643 107.011 95.9681 105.973C96.1827 105.704 96.4299 105.565 96.7097 105.555C96.9522 105.546 97.1427 105.652 97.2813 105.871C97.4384 106.089 97.5239 106.395 97.5378 106.786C97.5642 107.533 97.4075 108.117 97.0676 108.54C95.3007 110.863 93.6151 112.053 92.0108 112.109ZM107.709 105.165C107.952 105.157 108.142 105.262 108.281 105.481C108.438 105.7 108.524 106.005 108.538 106.397C108.564 107.143 108.407 107.728 108.067 108.151C107.3 109.168 106.452 110.01 105.523 110.678C104.594 111.346 103.514 111.702 102.283 111.746C98.4773 111.88 96.4797 109.271 96.2901 103.917C96.261 103.096 96.2596 102.265 96.2858 101.423L95.1945 101.462C94.6349 101.482 94.2488 101.393 94.0363 101.195C93.8425 100.996 93.7377 100.673 93.7218 100.225C93.6848 99.1807 94.0861 98.6435 94.9255 98.6137L96.5205 98.5572C96.765 96.494 97.1836 94.602 97.7764 92.8812C98.3692 91.1605 99.1048 89.7803 99.9833 88.7405C100.88 87.7001 101.861 87.1611 102.924 87.1234C103.707 87.0957 104.335 87.419 104.807 88.0934C105.28 88.7677 105.534 89.6273 105.571 90.672C105.674 93.5635 104.55 96.1248 102.201 98.3561L105.335 98.2451C105.633 98.2345 105.85 98.2922 105.986 98.4181C106.121 98.5441 106.195 98.7843 106.207 99.1387C106.253 100.426 105.222 101.107 103.114 101.182L99.6997 101.302C99.6954 102.237 99.7025 102.965 99.721 103.487C99.7897 105.427 100.062 106.781 100.537 107.549C101.031 108.316 101.773 108.682 102.762 108.647C103.564 108.618 104.264 108.351 104.862 107.844C105.461 107.337 106.163 106.584 106.968 105.584C107.182 105.315 107.43 105.175 107.709 105.165ZM102.263 89.8365C101.984 89.8464 101.679 90.2121 101.35 90.9335C101.038 91.6357 100.746 92.6173 100.473 93.8784C100.219 95.1202 100.015 96.5003 99.8636 98.0186C100.931 97.0282 101.714 95.9358 102.213 94.7414C102.73 93.5276 102.972 92.4357 102.938 91.4657C102.899 90.365 102.674 89.822 102.263 89.8365ZM115.88 98.0677C116.476 98.0466 116.93 98.1893 117.24 98.4959C117.567 98.7831 117.742 99.2252 117.763 99.8222C117.78 100.307 117.71 101.225 117.552 102.575C117.406 103.72 117.295 104.807 117.219 105.837C117.143 106.849 117.127 107.979 117.171 109.229C117.196 109.938 117.065 110.456 116.778 110.784C116.509 111.092 116.048 111.258 115.395 111.281C114.779 111.303 114.326 111.16 114.035 110.853C113.744 110.546 113.587 110.075 113.565 109.441C113.538 108.695 113.625 107.459 113.826 105.733C113.997 104.233 114.075 103.278 114.06 102.867C114.05 102.569 113.942 102.423 113.737 102.43C113.494 102.439 113.16 102.768 112.735 103.418C112.309 104.05 111.89 104.887 111.479 105.928C111.068 106.97 110.742 108.065 110.503 109.213C110.328 110.097 110.107 110.703 109.839 111.03C109.588 111.337 109.173 111.502 108.595 111.522C108.017 111.542 107.581 111.352 107.286 110.952C107.01 110.532 106.809 109.885 106.685 109.012C106.561 108.139 106.469 106.853 106.408 105.155C106.307 102.283 106.49 99.2782 106.958 96.1423C107.444 93.0058 108.219 90.3634 109.283 88.215C110.364 86.0474 111.707 84.9352 113.311 84.8784C114.169 84.848 114.873 85.1966 115.421 85.9243C115.988 86.6327 116.292 87.5745 116.334 88.7498C116.401 90.634 115.92 92.6122 114.891 94.6846C113.862 96.7383 112.155 99.1616 109.769 101.954C109.748 102.926 109.755 103.926 109.791 104.952C110.351 103.344 110.986 102.033 111.697 101.018C112.426 99.9831 113.147 99.2385 113.86 98.7837C114.591 98.3282 115.264 98.0895 115.88 98.0677ZM112.822 87.6694C112.486 87.6813 112.13 88.1796 111.754 89.1642C111.377 90.1301 111.022 91.4408 110.688 93.0964C110.373 94.7326 110.128 96.5157 109.953 98.4457C111.062 97.0429 111.96 95.5262 112.65 93.8954C113.358 92.264 113.689 90.7954 113.643 89.4895C113.621 88.8926 113.54 88.4378 113.398 88.1253C113.256 87.8128 113.064 87.6609 112.822 87.6694ZM146.89 88.5362C146.91 89.0958 146.804 89.5198 146.571 89.8082C146.357 90.096 145.989 90.2491 145.467 90.2676C145.443 90.6607 145.383 91.3446 145.287 92.3193C145.147 93.6317 145.07 94.3629 145.057 94.5128C143.834 106.94 140.593 113.247 135.332 113.433C133.784 113.488 132.556 113.092 131.648 112.247C130.759 111.4 130.291 110.315 130.244 108.99C130.16 106.621 131.093 104.496 133.044 102.615C134.994 100.716 137.589 99.1106 140.83 97.8004C140.989 96.4687 141.105 95.2785 141.18 94.2298L141.534 89.9866C140.411 89.9143 139.364 89.8954 138.394 89.9297C135.801 90.0216 133.898 90.3411 132.685 90.8884C131.471 91.4357 130.885 92.2783 130.925 93.4163C130.945 93.9759 131.153 94.5756 131.549 95.2153C131.668 95.3979 131.731 95.5918 131.738 95.797C131.752 96.1888 131.559 96.5505 131.16 96.8821C130.779 97.1945 130.355 97.3589 129.889 97.3755C129.292 97.3966 128.826 97.1609 128.491 96.6685C127.938 95.8289 127.641 94.8401 127.601 93.7021C127.443 89.2249 131.281 86.8476 139.116 86.5701C141.392 86.4895 143.433 86.6413 145.24 87.0256C146.312 87.2491 146.863 87.7526 146.89 88.5362ZM135.59 110.426C136.504 110.393 137.394 109.671 138.259 108.258C139.124 106.845 139.841 104.401 140.409 100.925C135.928 103.083 133.738 105.607 133.841 108.499C133.863 109.133 134.03 109.622 134.341 109.966C134.651 110.291 135.068 110.444 135.59 110.426ZM159.357 103.336C159.599 103.328 159.79 103.433 159.928 103.652C160.085 103.871 160.171 104.176 160.185 104.568C160.211 105.314 160.055 105.898 159.715 106.321C159.054 107.185 158.102 107.994 156.859 108.748C155.634 109.501 154.303 109.903 152.867 109.954C150.908 110.023 149.369 109.546 148.249 108.521C147.13 107.496 146.537 106.06 146.472 104.213C146.426 102.926 146.654 101.722 147.156 100.602C147.658 99.4638 148.373 98.5513 149.301 97.8647C150.248 97.1774 151.327 96.8123 152.54 96.7693C153.622 96.731 154.501 97.0268 155.177 97.6566C155.852 98.2677 156.21 99.1236 156.249 100.224C156.294 101.511 155.867 102.638 154.967 103.604C154.086 104.55 152.554 105.333 150.372 105.952C150.868 106.793 151.77 107.191 153.076 107.145C153.915 107.115 154.856 106.792 155.899 106.176C156.96 105.541 157.865 104.734 158.615 103.755C158.83 103.486 159.077 103.346 159.357 103.336ZM152.161 99.5285C151.471 99.5529 150.898 99.9748 150.441 100.794C150.003 101.613 149.804 102.591 149.845 103.729L149.847 103.785C150.938 103.485 151.792 103.062 152.407 102.518C153.023 101.973 153.319 101.355 153.294 100.665C153.282 100.311 153.169 100.034 152.957 99.8365C152.762 99.6193 152.497 99.5166 152.161 99.5285ZM160.075 109.699C159.366 109.724 158.849 109.369 158.524 108.633C158.218 107.897 158.035 106.708 157.977 105.066C157.891 102.641 158.155 100.325 158.768 98.1178C158.917 97.5708 159.173 97.1695 159.538 96.9138C159.92 96.6387 160.457 96.489 161.147 96.4645C161.52 96.4513 161.783 96.4887 161.935 96.5767C162.088 96.6647 162.169 96.8393 162.178 97.1004C162.189 97.3989 162.072 98.0754 161.83 99.13C161.669 99.8828 161.543 100.541 161.451 101.105C161.359 101.668 161.29 102.362 161.245 103.185C161.804 101.559 162.448 100.229 163.177 99.1944C163.906 98.1599 164.627 97.4153 165.339 96.9604C166.07 96.505 166.743 96.2663 167.359 96.2445C168.572 96.2016 169.199 96.7864 169.242 97.9989C169.251 98.2415 169.188 98.8321 169.053 99.7708C168.93 100.522 168.872 100.991 168.879 101.178C168.902 101.831 169.146 102.149 169.613 102.132C170.135 102.114 170.792 101.68 171.584 100.83C171.818 100.579 172.065 100.449 172.327 100.439C172.569 100.431 172.76 100.536 172.898 100.755C173.055 100.955 173.139 101.232 173.152 101.587C173.176 102.277 173.009 102.825 172.649 103.23C172.146 103.789 171.547 104.277 170.852 104.694C170.175 105.092 169.445 105.304 168.661 105.332C167.673 105.367 166.908 105.142 166.368 104.657C165.847 104.171 165.571 103.499 165.54 102.641C165.53 102.361 165.548 102.08 165.594 101.798C165.619 101.424 165.628 101.172 165.624 101.041C165.613 100.742 165.505 100.597 165.3 100.604C165.02 100.614 164.658 100.944 164.214 101.595C163.788 102.227 163.37 103.063 162.958 104.105C162.547 105.147 162.222 106.242 161.982 107.39C161.808 108.274 161.587 108.879 161.318 109.206C161.067 109.514 160.653 109.678 160.075 109.699ZM172.809 109.248C172.1 109.273 171.583 108.918 171.258 108.182C170.952 107.446 170.77 106.257 170.712 104.615C170.626 102.19 170.889 99.8738 171.502 97.6668C171.651 97.1198 171.907 96.7185 172.272 96.4628C172.654 96.1877 173.191 96.038 173.881 96.0135C174.254 96.0003 174.517 96.0377 174.67 96.1257C174.822 96.2137 174.903 96.3882 174.912 96.6494C174.923 96.9479 174.807 97.6244 174.564 98.679C174.404 99.4318 174.278 100.09 174.185 100.654C174.093 101.217 174.025 101.911 173.979 102.734C174.538 101.108 175.182 99.7778 175.911 98.7434C176.64 97.7089 177.361 96.9643 178.073 96.5094C178.804 96.054 179.478 95.8153 180.093 95.7935C181.306 95.7506 181.933 96.3354 181.976 97.5479C181.985 97.7905 181.922 98.3811 181.787 99.3198C181.664 100.071 181.606 100.54 181.613 100.727C181.636 101.38 181.881 101.698 182.347 101.681C182.869 101.663 183.526 101.229 184.318 100.379C184.552 100.128 184.8 99.9976 185.061 99.9883C185.303 99.9797 185.494 100.085 185.632 100.304C185.789 100.504 185.873 100.781 185.886 101.136C185.91 101.826 185.743 102.374 185.384 102.779C184.881 103.338 184.281 103.826 183.586 104.243C182.909 104.641 182.179 104.853 181.396 104.881C180.407 104.916 179.642 104.691 179.102 104.206C178.581 103.72 178.305 103.048 178.274 102.19C178.264 101.91 178.283 101.629 178.329 101.347C178.353 100.973 178.362 100.721 178.358 100.59C178.347 100.291 178.239 100.146 178.034 100.153C177.754 100.163 177.392 100.493 176.949 101.144C176.523 101.776 176.104 102.612 175.693 103.654C175.281 104.696 174.956 105.791 174.716 106.939C174.542 107.823 174.321 108.428 174.052 108.755C173.802 109.063 173.387 109.227 172.809 109.248ZM192.883 95.3405C193.312 95.3253 193.613 95.3707 193.785 95.4767C193.957 95.5827 194.047 95.7663 194.056 96.0274C194.072 96.4752 193.886 98.0787 193.498 100.838C193.162 103.484 192.966 105.05 192.908 105.538C192.388 110.357 191.571 114.187 190.457 117.028C189.344 119.869 187.78 121.325 185.765 121.397C184.814 121.43 184.029 121.159 183.411 120.584C182.793 120.026 182.468 119.272 182.434 118.321C182.403 117.444 182.567 116.542 182.927 115.614C183.305 114.685 184.014 113.605 185.053 112.372C186.112 111.158 187.613 109.751 189.555 108.15L189.616 107.504C189.722 106.809 189.836 105.815 189.958 104.522C189.633 105.878 189.147 106.923 188.5 107.655C187.853 108.369 187.157 108.74 186.41 108.766C185.571 108.796 184.867 108.438 184.299 107.692C183.749 106.927 183.453 105.966 183.413 104.81C183.363 103.411 183.411 102.129 183.557 100.966C183.702 99.7843 183.965 98.5328 184.348 97.2118C184.515 96.6455 184.762 96.2352 185.089 95.9808C185.416 95.7264 185.944 95.5863 186.671 95.5605C187.082 95.546 187.364 95.6014 187.518 95.7267C187.69 95.8513 187.781 96.0442 187.79 96.3054C187.796 96.4546 187.711 96.9619 187.536 97.8273C187.374 98.5242 187.247 99.1544 187.155 99.718C187.033 100.488 186.928 101.23 186.841 101.943C186.754 102.637 186.718 103.208 186.734 103.655C186.759 104.364 186.967 104.712 187.359 104.698C187.639 104.688 187.974 104.396 188.365 103.822C188.774 103.247 189.192 102.382 189.618 101.228C190.062 100.073 190.479 98.657 190.868 96.9809C190.998 96.4159 191.207 96.0069 191.497 95.7538C191.806 95.5001 192.268 95.3623 192.883 95.3405ZM185.977 118.672C186.443 118.655 186.946 118.096 187.486 116.993C188.026 115.891 188.541 114.07 189.03 111.531C187.636 112.795 186.631 113.932 186.013 114.944C185.414 115.974 185.128 116.862 185.155 117.608C185.166 117.925 185.231 118.184 185.35 118.386C185.488 118.586 185.697 118.682 185.977 118.672Z" fill="#E7524E"/>
<rect width="52.2192" height="1.5207" rx="0.760348" transform="matrix(0.998691 -0.0511423 -0.0511423 -0.998691 82.8669 83.2617)" fill="#E7524E"/>
</svg>
