<svg width="58" height="58" viewBox="0 0 58 58" fill="none" xmlns="http://www.w3.org/2000/svg">
<circle cx="29" cy="29" r="25.5" fill="#E75242" stroke="#2D2E32" stroke-width="7"/>
<path d="M40.4114 16.8474C40.4114 16.3801 40.0313 16 39.564 16H32.2421C31.7748 16 31.3947 16.3801 31.3947 16.8474V18.2182H40.4115V16.8474H40.4114Z" fill="white"/>
<path d="M23.8228 35.4758C27.2603 35.4758 30.0569 32.6792 30.0569 29.2417C30.0569 25.8042 27.2603 23.0076 23.8228 23.0076C20.3853 23.0076 17.5887 25.8042 17.5887 29.2417C17.5887 32.6792 20.3853 35.4758 23.8228 35.4758ZM20.761 26.18C22.4492 24.4919 25.1962 24.4919 26.8844 26.18C27.7021 26.9978 28.1526 28.0852 28.1526 29.2417C28.1526 30.3982 27.7022 31.4855 26.8843 32.3033C26.0666 33.1209 24.9792 33.5714 23.8228 33.5714C22.6663 33.5714 21.5789 33.121 20.7611 32.3033C19.9434 31.4854 19.4929 30.3981 19.4929 29.2417C19.4928 28.0852 19.9433 26.9978 20.761 26.18Z" fill="white"/>
<path d="M31.3947 29.2417C31.3947 30.9294 30.8392 32.4896 29.9022 33.75H43V24.7334H29.9021C30.8392 25.9938 31.3947 27.554 31.3947 29.2417Z" fill="white"/>
<path d="M16.2508 29.2417C16.2508 27.5539 16.8062 25.9937 17.7433 24.7333H15V33.7499H17.7432C16.8061 32.4896 16.2508 30.9294 16.2508 29.2417Z" fill="white"/>
<path d="M25.9383 31.3571C26.5035 30.792 26.8147 30.0408 26.8147 29.2416C26.8147 28.4424 26.5035 27.691 25.9383 27.1259C25.3732 26.5607 24.622 26.2496 23.8228 26.2496C23.0235 26.2496 22.2723 26.5607 21.7072 27.1259C21.142 27.691 20.8308 28.4423 20.8308 29.2416C20.8308 30.0407 21.142 30.792 21.7072 31.3571C22.8737 32.5237 24.7717 32.5237 25.9383 31.3571Z" fill="white"/>
<path d="M41.4591 19.556H16.5409C15.6912 19.556 15 20.2473 15 21.097V23.3954H19.016C20.3243 22.3178 21.9992 21.6697 23.8226 21.6697C25.646 21.6697 27.3209 22.3178 28.6293 23.3954H43V21.097C43 20.2473 42.3088 19.556 41.4591 19.556ZM38.8055 22.1709H33.6282C33.2587 22.1709 32.9592 21.8714 32.9592 21.5019C32.9592 21.1324 33.2587 20.8329 33.6282 20.8329H38.8055C39.1749 20.8329 39.4745 21.1324 39.4745 21.5019C39.4745 21.8714 39.1749 22.1709 38.8055 22.1709Z" fill="white"/>
<path d="M23.8227 36.8137C21.9992 36.8137 20.3243 36.1657 19.0159 35.0879H15V37.3863C15 38.2361 15.6912 38.9273 16.5409 38.9273H41.4591C42.3088 38.9273 43 38.2361 43 37.3863V35.0879H28.6295C27.3211 36.1656 25.6462 36.8137 23.8227 36.8137Z" fill="white"/>
</svg>
