<svg width="58" height="58" viewBox="0 0 58 58" fill="none" xmlns="http://www.w3.org/2000/svg">
<circle cx="29" cy="29" r="25.5" fill="#E75242" stroke="#2D2E32" stroke-width="7"/>
<path fill-rule="evenodd" clip-rule="evenodd" d="M26.9555 36.831C26.9609 36.9557 26.9472 37.0773 26.9206 37.2005C26.8737 37.4168 26.7832 37.6458 26.6551 37.8574C26.2909 38.4587 25.6721 38.86 24.8756 38.86C22.999 38.86 22.2626 37.9539 21.3404 35.6849C20.7159 34.1482 20.4213 33.7857 19.72 33.7857V31.756C21.5965 31.756 22.333 32.6621 23.2551 34.9311C23.8797 36.4678 24.1743 36.8303 24.8756 36.8303C24.8756 36.5358 24.8715 36.275 24.8628 35.9217C24.8426 35.0938 24.8403 34.9248 24.877 34.7035C24.8917 34.2203 25.0184 33.8775 25.2725 33.5372C22.9713 33.0442 21.4192 32.0259 20.5284 30.3743L20.1947 29.6019C19.8696 28.6823 19.72 27.6404 19.72 26.4371C19.72 25.0513 20.1493 23.8122 20.9512 22.7764C20.701 21.7918 20.7353 20.5889 21.2876 19.2304L21.4681 18.7865L21.9308 18.6408C21.9927 18.6213 22.068 18.6037 22.1565 18.5901C23.0575 18.4509 24.3395 18.7829 26.0155 19.8396C27.0035 19.6141 28.044 19.5003 29.0915 19.5003C30.0276 19.5003 30.9586 19.5932 31.8476 19.7763C33.4782 18.7713 34.725 18.4561 35.6017 18.5902C35.6892 18.6036 35.7637 18.6209 35.8251 18.6401L36.2907 18.7854L36.4714 19.232C36.9546 20.4262 37.0375 21.5268 36.8617 22.4898C37.7835 23.5784 38.28 24.9168 38.28 26.4371C38.28 27.7188 38.1867 28.6826 37.9185 29.6202L37.6355 30.3847C36.8945 32.0346 35.2604 33.0642 32.7404 33.5547C33.0023 33.9116 33.1244 34.274 33.1244 34.8006V35.8154C33.1244 36.3072 33.1244 36.3224 33.1233 36.8303C33.1257 36.8668 33.1287 36.8846 33.1321 36.8958C33.1316 36.8959 33.129 37.5507 33.1244 38.86C32.2462 38.86 31.5931 38.4384 31.2719 37.7734C31.1054 37.4286 31.0557 37.0994 31.0622 36.8159V34.8006C31.0622 34.7155 31.0592 34.7106 30.8487 34.5033C30.2859 33.9494 30.0311 33.5315 30.0311 32.7709V31.8529L30.9592 31.7611C33.7218 31.488 35.2243 30.7329 35.7225 29.6298L35.9553 29.0034C36.1406 28.3485 36.2178 27.5508 36.2178 26.4371C36.2178 25.2537 35.798 24.2761 35.0042 23.4951L34.5678 23.0658L34.7459 22.4844C34.9041 21.9679 34.9417 21.3567 34.7743 20.6596C34.7465 20.6666 34.7176 20.6741 34.6876 20.6823C34.1355 20.8336 33.4462 21.1582 32.6155 21.7047L32.2367 21.954L31.7944 21.846C30.9389 21.6372 30.0196 21.53 29.0915 21.53C28.0595 21.53 27.0393 21.6593 26.0969 21.9122L25.6369 22.0356L25.2435 21.7706C24.3844 21.1922 23.6707 20.8482 23.0984 20.6875C23.0575 20.676 23.0186 20.6658 22.9816 20.6566C22.7819 21.4634 22.8609 22.1262 23.0631 22.6236L23.3056 23.22L22.8617 23.6909C22.1543 24.4413 21.7822 25.3544 21.7822 26.4371C21.7822 27.4284 21.9001 28.2497 22.1162 28.8685L22.386 29.4971C23.0605 30.7429 24.4932 31.4923 27.0477 31.7618L27.9689 31.859V32.7709C27.9689 33.5315 27.7141 33.9494 27.1513 34.5033C26.9408 34.7106 26.9378 34.7155 26.9378 34.8006L26.92 34.9882C26.9082 35.0497 26.9082 35.2086 26.9245 35.873C26.9319 36.1785 26.9362 36.4204 26.9374 36.6731C26.9497 36.7254 26.9516 36.7592 26.9555 36.831Z" fill="#FFFCFC"/>
</svg>
