<svg width="58" height="58" viewBox="0 0 58 58" fill="none" xmlns="http://www.w3.org/2000/svg">
<circle cx="29" cy="29" r="25.5" fill="#E75242" stroke="#2D2E32" stroke-width="7"/>
<path fill-rule="evenodd" clip-rule="evenodd" d="M36.6073 30.9656V36.6045C36.6073 37.8502 35.5973 38.8601 34.3514 38.8601H20.8159C19.57 38.8601 18.56 37.8502 18.56 36.6045V23.0712C18.56 21.8255 19.57 20.8156 20.8159 20.8156H26.4557V23.0712H20.8159V36.6045H34.3514V30.9656H36.6073ZM36.6041 22.4105L28.378 30.6353L26.7828 29.0404L35.0089 20.8156H29.8363V18.5601H38.86V27.5823H36.6041V22.4105Z" fill="#FFFDFD"/>
<path d="M3.31037 40.6793C2.83805 39.7956 3.03384 38.9958 3.89774 38.2798L7.17547 35.5635C7.46652 35.3223 7.69972 35.3657 7.87508 35.6938C8.05326 36.0272 7.99683 36.3145 7.70578 36.5557L4.46962 39.2376C4.05384 39.5821 3.95201 39.9528 4.16413 40.3497C4.18676 40.392 4.20797 40.4317 4.22777 40.4688C4.25218 40.502 4.2766 40.5352 4.30102 40.5684C4.34986 40.6348 4.35824 40.7004 4.32619 40.7652C4.29875 40.8261 4.21805 40.912 4.08407 41.0231C3.96858 41.1188 3.86435 41.167 3.77139 41.1677C3.67843 41.1683 3.5925 41.1136 3.51359 41.0034C3.44033 40.9037 3.37259 40.7957 3.31037 40.6793Z" fill="#FFFBFB"/>
<path d="M9.66274 40.3439C9.5388 40.1744 9.47515 40.0029 9.4718 39.8296C9.47596 39.6565 9.53956 39.5003 9.6626 39.3608C9.78961 39.2168 9.9205 39.1526 10.0553 39.1681C10.1936 39.1885 10.3247 39.2834 10.4486 39.453C10.7107 39.8114 10.7107 40.1391 10.4488 40.436C10.1868 40.733 9.9248 40.7023 9.66274 40.3439ZM6.11435 44.3665C6.00811 44.2212 5.96238 44.0693 5.97717 43.9108C5.99195 43.7523 6.06285 43.6011 6.18986 43.4571L8.37486 40.9801C8.64476 40.6741 8.88949 40.6713 9.10905 40.9716C9.33215 41.2767 9.30875 41.5823 9.03885 41.8882L6.85385 44.3652C6.72684 44.5092 6.59928 44.583 6.47118 44.5865C6.34307 44.59 6.22413 44.5166 6.11435 44.3665Z" fill="#FFFBFB"/>
<path d="M10.7646 49.1122C10.5494 48.9033 10.4744 48.6139 10.5398 48.2441L11.2748 44.4324C11.3195 44.2061 11.4097 44.0565 11.5452 43.9836C11.6851 43.915 11.8433 43.9663 12.0198 44.1377C12.1189 44.2338 12.181 44.339 12.2063 44.4535C12.2347 44.5628 12.2265 44.7142 12.1815 44.9077L11.5241 47.9485L13.7622 46.4294C13.8987 46.333 14.013 46.2886 14.1051 46.2962C14.2048 46.3029 14.3084 46.3585 14.416 46.463C14.5538 46.5967 14.6109 46.7543 14.5873 46.9358C14.5637 47.1172 14.4708 47.2601 14.3087 47.3644L11.4957 49.1717C11.2322 49.3493 10.9885 49.3295 10.7646 49.1122Z" fill="#FFFBFB"/>
<path d="M16.3874 52.922C15.9674 52.6544 15.6409 52.3379 15.408 51.9724C15.175 51.607 15.04 51.2129 15.003 50.7902C14.971 50.3707 15.044 49.9445 15.2218 49.5116C15.3951 49.0898 15.6252 48.7707 15.912 48.5543C16.2039 48.3411 16.5255 48.2344 16.8768 48.2341C17.2355 48.2314 17.5944 48.3446 17.9537 48.5734C18.48 48.9087 18.8197 49.3562 18.9728 49.9159C19.131 50.4788 19.0802 51.0766 18.8202 51.7093C18.7359 51.9147 18.5722 51.94 18.3293 51.7852L16.0369 50.3249C15.8091 51.0971 16.0393 51.7024 16.7275 52.1408C16.8591 52.2246 17.0127 52.3014 17.1883 52.3713C17.3712 52.4388 17.5543 52.4749 17.7376 52.4796C17.9033 52.4802 18.0249 52.5261 18.1023 52.6175C18.182 52.7032 18.2213 52.8018 18.2203 52.9132C18.2243 53.0278 18.1883 53.1309 18.1123 53.2225C18.0437 53.3119 17.9352 53.3583 17.7869 53.3619C17.5597 53.3711 17.3171 53.3321 17.0592 53.2449C16.8087 53.1553 16.5848 53.0477 16.3874 52.922ZM17.7009 49.3052C17.4226 49.1279 17.1587 49.0788 16.9091 49.1579C16.6595 49.237 16.4509 49.4262 16.2832 49.7255L18.1505 50.9151C18.2694 50.5636 18.2894 50.2508 18.2105 49.9765C18.139 49.6998 17.9691 49.4761 17.7009 49.3052Z" fill="#FFFBFB"/>
<path d="M25.0811 57.3757C24.7135 57.3191 24.5483 57.1028 24.5856 56.7266L25.0824 51.7202C25.1198 51.344 25.3193 51.1838 25.681 51.2395C26.0487 51.296 26.2139 51.5124 26.1766 51.8886L26.1579 52.0766C26.3055 51.8629 26.5107 51.7066 26.7734 51.6076C27.0367 51.5026 27.3285 51.4748 27.6487 51.524C28.0282 51.5824 28.3511 51.7261 28.6174 51.955C28.8896 52.1848 29.0889 52.4822 29.2152 52.8471C29.3422 53.2061 29.3822 53.6214 29.3354 54.0931C29.2892 54.5588 29.1689 54.9525 28.9744 55.2742C28.7805 55.5899 28.532 55.8184 28.229 55.9597C27.926 56.101 27.5818 56.142 27.1963 56.0826C26.8879 56.0352 26.6157 55.9266 26.3797 55.757C26.1502 55.5822 25.9815 55.3714 25.8735 55.1244L25.6975 56.8977C25.6602 57.2738 25.4547 57.4332 25.0811 57.3757ZM26.9694 55.1839C27.3015 55.235 27.5802 55.1567 27.8055 54.9489C28.0315 54.7351 28.1678 54.3924 28.2146 53.9207C28.262 53.443 28.1965 53.0723 28.0179 52.8084C27.84 52.5385 27.585 52.378 27.2529 52.327C26.9208 52.2759 26.6421 52.3542 26.4168 52.562C26.1921 52.7638 26.056 53.1036 26.0086 53.5812C25.9618 54.0529 26.027 54.4267 26.2044 54.7025C26.3823 54.9723 26.6373 55.1328 26.9694 55.1839Z" fill="#FFFBFB"/>
<path d="M31.6451 56.0159C31.2625 56.0475 31.0609 55.8716 31.0405 55.4881L30.8596 52.0909C30.8395 51.7134 31.0118 51.5097 31.3766 51.4795C31.7413 51.4494 31.9338 51.6231 31.9539 52.0006L31.9687 52.2792C32.1565 51.7461 32.6017 51.4205 33.3041 51.3024C33.5596 51.2512 33.7109 51.3861 33.7581 51.7072C33.8049 52.0223 33.6588 52.2119 33.3199 52.276L33.1235 52.3102C32.3918 52.4428 32.0442 52.8507 32.0805 53.5337L32.1796 55.3941C32.2 55.7775 32.0219 55.9848 31.6451 56.0159Z" fill="#FFFBFB"/>
<path d="M38.2716 54.6703C37.8379 54.8112 37.4422 54.8426 37.0845 54.7645C36.7268 54.6863 36.4244 54.5086 36.1774 54.2314C35.9291 53.9483 35.7569 53.5777 35.6609 53.1196C35.5649 52.6616 35.5702 52.2365 35.6769 51.8443C35.7836 51.452 35.9777 51.113 36.2591 50.8271C36.5404 50.5411 36.898 50.3277 37.3316 50.1867C37.7653 50.0458 38.161 50.0144 38.5187 50.0925C38.8764 50.1707 39.1788 50.3484 39.4258 50.6256C39.6729 50.9029 39.8444 51.2705 39.9405 51.7285C40.0365 52.1866 40.0318 52.6147 39.9263 53.0127C39.8196 53.405 39.6255 53.744 39.3441 54.03C39.0628 54.3159 38.7053 54.5293 38.2716 54.6703ZM38.0962 53.8335C38.4157 53.7296 38.6478 53.5287 38.7926 53.2307C38.9361 52.9269 38.9593 52.543 38.862 52.0791C38.7635 51.6093 38.5933 51.2914 38.3513 51.1255C38.108 50.9537 37.8266 50.9197 37.5071 51.0235C37.1875 51.1274 36.9554 51.3283 36.8106 51.6263C36.6646 51.9184 36.6409 52.2993 36.7393 52.7691C36.8366 53.233 37.0075 53.5538 37.252 53.7315C37.4952 53.9033 37.7766 53.9373 38.0962 53.8335Z" fill="#FFFBFB"/>
<path d="M41.0803 47.5742C40.8985 47.6794 40.7379 47.7142 40.5984 47.6788C40.4619 47.6347 40.3612 47.5255 40.2961 47.3513C40.229 47.1714 40.2269 47.0051 40.2899 46.8525C40.3581 46.6968 40.4831 46.5664 40.6649 46.4612C41.0492 46.2388 41.3106 46.3131 41.449 46.6841C41.5875 47.0551 41.4646 47.3518 41.0803 47.5742ZM42.5472 54.7022C42.4059 54.7976 42.2853 54.8298 42.1854 54.7987C42.0823 54.7764 42.0067 54.7176 41.9585 54.6224C41.9104 54.5273 41.8965 54.4225 41.917 54.3081C41.9323 54.1967 41.9897 54.1054 42.0894 54.034C42.3147 53.8763 42.4562 53.7056 42.5139 53.5218C42.5789 53.3406 42.5653 53.1264 42.4729 52.8791L41.0851 49.1606C40.9529 48.8065 41.0504 48.5347 41.3776 48.3454C41.6996 48.1591 41.9267 48.243 42.0588 48.5971L43.412 52.2228C43.6155 52.7681 43.644 53.2335 43.4974 53.6191C43.3509 54.0047 43.0341 54.3657 42.5472 54.7022Z" fill="#FFFBFB"/>
<path d="M48.3945 48.8776C48.0173 49.2027 47.6471 49.4014 47.284 49.4738C46.9209 49.5462 46.5813 49.4975 46.2652 49.3278C45.9536 49.1542 45.6842 48.8628 45.4569 48.4537C45.2354 48.0551 45.112 47.6457 45.0868 47.2253C45.0662 46.8011 45.1342 46.3973 45.291 46.0141C45.4494 45.6217 45.6899 45.2865 46.0127 45.0084C46.4854 44.6011 46.9543 44.453 47.4194 44.5642C47.889 44.6715 48.2899 45.024 48.6222 45.6219C48.73 45.816 48.6748 46.007 48.4566 46.195L46.3975 47.9691C46.8429 48.6013 47.3747 48.6511 47.9929 48.1185C48.1111 48.0167 48.2342 47.8874 48.3621 47.7306C48.4917 47.5646 48.5991 47.3829 48.6843 47.1854C48.7588 47.0049 48.8457 46.8952 48.945 46.8561C49.0414 46.8119 49.1288 46.818 49.2073 46.8745C49.2903 46.9271 49.3473 47.0176 49.3783 47.146C49.4109 47.2652 49.3954 47.4065 49.3316 47.57C49.2366 47.8225 49.1006 48.0677 48.9236 48.3055C48.7482 48.5342 48.5718 48.7249 48.3945 48.8776ZM46.4183 45.6477C46.1683 45.8631 46.0156 46.1266 45.9601 46.438C45.9046 46.7495 45.9455 47.0711 46.0827 47.4027L47.7601 45.9575C47.5641 45.6533 47.3513 45.476 47.1217 45.4256C46.8937 45.3661 46.6592 45.4402 46.4183 45.6477Z" fill="#FFFBFB"/>
<path d="M52.8557 44.359C52.5696 44.7218 52.2618 44.9654 51.9322 45.09C51.5989 45.2099 51.2645 45.2081 50.929 45.0848C50.5935 44.9614 50.2777 44.7186 49.9814 44.3563C49.6852 43.994 49.4883 43.6098 49.3908 43.2036C49.2895 42.7928 49.2877 42.3835 49.3856 41.9756C49.4796 41.5631 49.6697 41.1755 49.9558 40.8127C50.0784 40.6573 50.2274 40.5109 50.4028 40.3737C50.5819 40.2318 50.7745 40.1295 50.9806 40.0669C51.1005 40.0284 51.2021 40.0462 51.2854 40.1203C51.3724 40.1897 51.4296 40.2828 51.4569 40.3995C51.488 40.5115 51.4852 40.6238 51.4486 40.7364C51.4158 40.8443 51.3375 40.9199 51.2139 40.963C50.9443 41.059 50.7295 41.2082 50.5698 41.4108C50.3282 41.717 50.2185 42.0502 50.2404 42.4102C50.2623 42.7609 50.4157 43.1104 50.7005 43.4588C50.9816 43.8025 51.2688 43.9917 51.5622 44.0266C51.8555 44.0521 52.1229 43.9117 52.3644 43.6055C52.5242 43.4029 52.642 43.1352 52.718 42.8024C52.7504 42.6477 52.8097 42.5489 52.8957 42.5061C52.9818 42.4632 53.0701 42.4648 53.1607 42.5108C53.2474 42.5521 53.3195 42.6263 53.3768 42.7334C53.4303 42.8359 53.4445 42.9597 53.4195 43.105C53.3728 43.3533 53.2979 43.5856 53.1946 43.8017C53.0913 44.0178 52.9783 44.2036 52.8557 44.359Z" fill="#FFFBFB"/>
<path d="M55.6965 38.7832C55.139 39.8051 54.4205 39.944 53.541 39.2001L52.0773 37.9621L51.8532 38.3729C51.7095 38.6363 51.53 38.6769 51.3147 38.4948C51.0994 38.3127 51.0636 38.0899 51.2073 37.8266L51.4314 37.4157L50.8061 36.8868C50.5175 36.6427 50.4637 36.3547 50.6447 36.0229C50.8229 35.6963 51.0562 35.6551 51.3448 35.8992L51.9702 36.4281L52.427 35.5906C52.5707 35.3273 52.7502 35.2866 52.9655 35.4688C53.1808 35.6509 53.2166 35.8736 53.073 36.137L52.6161 36.9745L54.0316 38.1718C54.2515 38.3577 54.4466 38.4419 54.6169 38.4243C54.7872 38.4067 54.9399 38.2741 55.0749 38.0266C55.1238 37.937 55.16 37.8522 55.1836 37.7721C55.2072 37.692 55.2311 37.6237 55.2552 37.5671C55.2851 37.5 55.3322 37.4629 55.3964 37.4556C55.456 37.4445 55.5454 37.4893 55.6645 37.59C55.7561 37.6675 55.8285 37.7557 55.8817 37.8546C55.9332 37.9443 55.9483 38.0455 55.9269 38.1583C55.9079 38.2423 55.8751 38.3454 55.8285 38.4676C55.7864 38.5938 55.7425 38.6989 55.6965 38.7832Z" fill="#FFFBFB"/>
</svg>
