<svg width="58" height="64" viewBox="0 0 58 64" fill="none" xmlns="http://www.w3.org/2000/svg">
<circle cx="29" cy="28.9999" r="25.5" fill="#E75242" stroke="#2D2E32" stroke-width="7"/>
<g clip-path="url(#clip0_156_48)">
<path d="M40.455 40.4549H22.185V32.6249H35.235V26.0999H40.455V40.4549Z" fill="#FFFCFC" stroke="#2D2E32" stroke-width="2"/>
<path d="M40.455 26.0998V24.2728H35.235V26.0998H40.455Z" fill="#666666" stroke="#222222" stroke-width="2"/>
<path d="M16.965 32.6248V18.2698H35.235V32.6248H16.965Z" fill="white" stroke="#2D2E32" stroke-width="2"/>
<path d="M16.965 18.2699V16.4429H35.235V18.2699H16.965Z" fill="#238FB7" stroke="#222222" stroke-width="2"/>
</g>
<path d="M3.92741 40.4328C3.70572 40.0343 3.57343 39.6174 3.53056 39.1821C3.48768 38.7467 3.53179 38.3175 3.66288 37.8944C3.79786 37.4668 4.01691 37.0746 4.32005 36.7181C4.62318 36.3615 4.93072 36.1342 5.24266 36.0362C5.55461 35.9382 5.8525 35.9651 6.13633 36.117C6.42016 36.2689 6.67292 36.5441 6.89461 36.9426C7.1163 37.3411 7.24859 37.758 7.29146 38.1933C7.33434 38.6287 7.29023 39.0579 7.15914 39.481C7.02805 39.9041 6.81093 40.2939 6.5078 40.6505C6.20467 41.007 5.89519 41.2366 5.57935 41.3392C5.26741 41.4372 4.96952 41.4103 4.68569 41.2584C4.40186 41.1065 4.1491 40.8313 3.92741 40.4328ZM4.48121 39.7814C4.64456 40.075 4.85355 40.2195 5.10818 40.2149C5.3667 40.2058 5.64947 40.0206 5.95649 39.6595C6.26739 39.2938 6.44904 38.9327 6.50143 38.5761C6.5577 38.215 6.50416 37.8876 6.34081 37.594C6.17746 37.3004 5.96846 37.1559 5.71383 37.1605C5.46309 37.1605 5.18226 37.3433 4.87136 37.709C4.56434 38.0702 4.38075 38.4336 4.32059 38.7993C4.26432 39.1604 4.31786 39.4878 4.48121 39.7814Z" fill="#FFFAFA"/>
<path d="M10.1829 47.9935C9.97774 47.7746 9.89758 47.4707 9.94239 47.0817L10.4602 43.0727C10.492 42.8347 10.5683 42.6772 10.6893 42.6002C10.8143 42.5276 10.9609 42.581 11.1291 42.7605C11.2235 42.8612 11.2845 42.9716 11.3122 43.0918C11.3426 43.2067 11.3412 43.3659 11.3079 43.5694L10.8299 46.7678L12.8136 45.1637C12.9344 45.0619 13.0371 45.0148 13.1216 45.0225C13.2128 45.0293 13.3098 45.0874 13.4123 45.1968C13.5436 45.3369 13.6021 45.5024 13.5879 45.6932C13.5736 45.8841 13.4945 46.0345 13.3506 46.1446L10.8532 48.0536C10.6197 48.2412 10.3962 48.2211 10.1829 47.9935Z" fill="#FFFAFA"/>
<path d="M17.8369 53.49C17.4049 53.2423 17.057 52.9392 16.7934 52.5806C16.5297 52.2221 16.3568 51.8285 16.2745 51.4C16.1975 50.9744 16.2202 50.5358 16.3426 50.0841C16.462 49.644 16.6471 49.3051 16.8979 49.0675C17.154 48.833 17.4503 48.7051 17.7869 48.6839C18.1302 48.6599 18.4866 48.7539 18.8562 48.9657C19.3975 49.2761 19.7726 49.7119 19.9812 50.2731C20.1951 50.8374 20.2126 51.4496 20.0335 52.1097C19.9754 52.324 19.8215 52.3595 19.5716 52.2163L17.2136 50.8644C17.0808 51.6648 17.3683 52.2679 18.0763 52.6738C18.2116 52.7514 18.3673 52.8205 18.5433 52.8813C18.726 52.9392 18.9054 52.9651 19.0815 52.959C19.2404 52.9498 19.362 52.9893 19.4463 53.0778C19.5321 53.1605 19.5807 53.2586 19.592 53.3721C19.6085 53.4887 19.5855 53.5959 19.5228 53.6938C19.467 53.7889 19.3682 53.8427 19.2265 53.8551C19.0097 53.8781 18.773 53.8527 18.5163 53.7792C18.2664 53.7028 18.0399 53.6064 17.8369 53.49ZM18.695 49.7265C18.4087 49.5623 18.1504 49.528 17.92 49.6234C17.6897 49.7188 17.5107 49.924 17.3832 50.239L19.304 51.3402C19.3789 50.975 19.3635 50.655 19.2575 50.3802C19.1584 50.1025 18.9709 49.8846 18.695 49.7265Z" fill="#FFFAFA"/>
<path d="M24.1731 55.6688C23.7969 55.592 23.6272 55.3625 23.6641 54.9802L23.9911 51.594C24.0275 51.2177 24.2249 51.0662 24.5835 51.1394C24.9421 51.2126 25.1033 51.4374 25.0669 51.8136L25.0401 52.0913C25.3013 51.6209 25.7817 51.4267 26.4811 51.5086C26.7368 51.5303 26.8638 51.7055 26.862 52.034C26.8609 52.3565 26.691 52.5015 26.3525 52.4689L26.1567 52.4472C25.4267 52.3712 25.0288 52.6737 24.9631 53.3545L24.784 55.2089C24.7471 55.5911 24.5435 55.7444 24.1731 55.6688Z" fill="#FFFAFA"/>
<path d="M31.8934 55.9923C31.5963 56.0342 31.3659 55.9065 31.2022 55.6093L29.5644 52.4952C29.4681 52.3094 29.4535 52.1362 29.5208 51.9757C29.594 51.8143 29.7524 51.7164 29.996 51.6821C30.1326 51.6629 30.2448 51.6803 30.3323 51.7344C30.4195 51.7826 30.5015 51.8889 30.5785 52.0533L31.8274 54.5967L32.7524 51.738C32.8066 51.5612 32.8733 51.4369 32.9525 51.3654C33.0372 51.287 33.1538 51.2373 33.3024 51.2164C33.4925 51.1896 33.6311 51.2456 33.7183 51.3844C33.8056 51.5232 33.814 51.6942 33.7435 51.8975L32.5212 55.4235C32.4116 55.7592 32.2023 55.9488 31.8934 55.9923Z" fill="#FFFAFA"/>
<path d="M37.2474 49.0192C37.0585 49.1108 36.8986 49.1331 36.7678 49.086C36.6411 49.0305 36.557 48.9121 36.5154 48.7308C36.4725 48.5437 36.4909 48.3755 36.5707 48.2264C36.6558 48.0746 36.7929 47.9529 36.9818 47.8612C37.3813 47.6675 37.6254 47.7636 37.7139 48.1496C37.8024 48.5356 37.6469 48.8254 37.2474 49.0192ZM38.4466 54.2474C38.2847 54.3259 38.1484 54.3335 38.0379 54.2702C37.9274 54.2068 37.8507 54.0815 37.8077 53.8944L37.0693 50.675C36.9781 50.2773 37.0998 49.9973 37.4346 49.835C37.7747 49.6701 37.9903 49.7864 38.0816 50.1841L38.82 53.4035C38.8629 53.5906 38.8533 53.7578 38.791 53.9049C38.7288 54.0521 38.614 54.1662 38.4466 54.2474Z" fill="white"/>
<path d="M45.181 50.3071C44.8082 50.6374 44.4512 50.8361 44.1098 50.9033C43.7685 50.9705 43.4576 50.912 43.1772 50.7279C42.9014 50.5398 42.673 50.2299 42.4921 49.7983C42.3158 49.3777 42.2312 48.9481 42.2383 48.5093C42.2498 48.0665 42.342 47.6472 42.5148 47.2513C42.6897 46.8459 42.9366 46.5019 43.2555 46.2194C43.7226 45.8056 44.1673 45.6619 44.5898 45.7884C45.0168 45.9109 45.3625 46.2876 45.6269 46.9185C45.7127 47.1232 45.6478 47.3211 45.4322 47.5121L43.3978 49.3145C43.7645 49.9837 44.2532 50.0478 44.864 49.5066C44.9807 49.4032 45.104 49.2712 45.2338 49.1107C45.3658 48.9406 45.4783 48.7536 45.5715 48.5497C45.6534 48.3633 45.7418 48.2508 45.8366 48.2124C45.929 48.1685 46.0095 48.1768 46.078 48.2375C46.151 48.2942 46.1973 48.3898 46.2167 48.5244C46.2383 48.6494 46.2137 48.7964 46.1429 48.9654C46.0367 49.2264 45.8931 49.4789 45.712 49.7228C45.5331 49.9572 45.3561 50.152 45.181 50.3071ZM43.5848 46.8951C43.3378 47.1139 43.1774 47.3851 43.1036 47.7085C43.0297 48.0319 43.0443 48.3681 43.1474 48.7169L44.8045 47.2486C44.6451 46.927 44.461 46.7373 44.252 46.6796C44.0453 46.6124 43.8229 46.6842 43.5848 46.8951Z" fill="#FFFAFA"/>
<path d="M51.5063 44.4491C51.3444 44.7158 51.1364 44.7774 50.8824 44.6339L48.1584 43.1228C47.9889 43.0238 47.8817 42.8816 47.8367 42.6962C47.7949 42.5057 47.8316 42.3156 47.9468 42.1258C48.0153 42.0129 48.0916 41.9467 48.1758 41.9269C48.2562 41.9024 48.3655 41.9332 48.5036 42.0191L50.6824 43.3096L49.5007 40.2466C49.3956 39.9658 49.4069 39.7202 49.5345 39.5099C49.6653 39.2945 49.8315 39.2477 50.0331 39.3696L52.2867 40.7151L51.1068 37.6817C51.0383 37.5026 51.009 37.3509 51.0188 37.2267C51.0317 37.0973 51.0678 36.9838 51.1269 36.8864C51.239 36.7017 51.3601 36.6427 51.4903 36.7094C51.6167 36.7713 51.7187 36.9113 51.7962 37.1294L53.1706 40.864C53.297 41.2178 53.2808 41.5255 53.122 41.7871C52.957 42.0589 52.7491 42.1205 52.4982 41.9718L50.5227 40.8327L51.5493 43.5189C51.6856 43.8672 51.6713 44.1772 51.5063 44.4491Z" fill="#FFFAFA"/>
<defs>
<clipPath id="clip0_156_48">
<rect width="26.1" height="26.1" fill="white" transform="translate(15.66 15.6599)"/>
</clipPath>
</defs>
</svg>
