<svg width="705" height="602" viewBox="0 0 705 602" fill="none" xmlns="http://www.w3.org/2000/svg">
<rect width="705" height="602" fill="#F0DB4F"/>
<path d="M250.656 284.766C250.656 274.355 240.601 263.437 223.124 263.437C203.525 263.437 182.007 277.771 178.712 306.382C175.345 335.273 193.365 348.111 211.53 348.111C229.694 348.111 239.205 341.051 248.933 331.636C240.568 321.159 229.766 326.001 227.696 327.068C224.27 328.964 220.389 329.902 216.469 329.781C209.46 329.781 202.307 326.645 202.307 313.592C247.217 309.167 250.649 295.112 250.649 284.766H250.656ZM228.397 286.478C228.109 289.686 226.825 295.177 204.082 298.255C208.864 281.272 218.034 279.997 222.246 279.997C223.1 279.958 223.952 280.102 224.744 280.42C225.537 280.737 226.251 281.22 226.839 281.836C227.427 282.452 227.875 283.187 228.151 283.99C228.428 284.793 228.527 285.646 228.443 286.491L228.397 286.478ZM152.333 289.263L141.892 322.005L134.522 265.154C118.081 265.154 109.238 276.854 104.626 289.191L91.8919 322.077L90.1036 289.542C89.1341 274.42 75.234 265.22 64 265.22L77.5857 347.467C94.8134 347.402 104.115 335.767 108.982 323.43L119.751 295.47C119.849 296.609 127.192 347.473 127.192 347.473C144.499 347.473 153.8 336.561 158.785 324.647L183.022 265.226C165.958 265.226 156.964 276.854 152.32 289.263H152.333ZM314.169 263.235C303.511 263.235 295.369 269.013 288.491 277.498V277.433L294.635 228C280.473 228 268.958 240.272 266.743 258.53L256.092 346.829C264.248 346.829 272.901 344.474 277.552 338.481C281.705 343.83 287.921 348.111 297.151 348.111C321.034 348.111 337.416 320.437 337.416 294.468C337.272 270.783 325.757 263.3 314.241 263.3L314.169 263.235ZM311.942 305.679C309.453 320.157 301.356 330.002 293.568 330.002C285.779 330.002 282.34 326.508 282.34 326.508C283.847 313.82 284.777 306.037 287.633 299.329C290.489 292.62 297.288 281.923 304.369 281.923C311.313 281.923 314.457 291.124 311.948 305.673L311.942 305.679ZM396.98 265.161H380.315L380.381 264.302C381.527 253.462 384.102 247.755 392.591 246.824C398.388 246.252 400.963 243.259 401.604 239.979L403.681 228.495C370.274 228.28 359.701 242.68 357.009 264.66L356.943 265.161H356.583C351.146 265.161 345.146 271.297 344.137 279.073L343.777 281.923H354.939L345.572 359.095L342.703 372.935C343.063 372.935 343.489 373 343.842 373C359.498 372.427 369.52 360.09 371.734 342.183L379.045 281.91H384.285C389.434 281.91 395.447 276.769 396.495 268.213L396.98 265.161ZM483.656 263.729C464.417 263.729 446.252 277.849 440.685 300.038C435.117 322.227 443.554 348.469 471.865 348.469C500.176 348.469 516.388 321.14 516.388 298.392C516.414 275.78 501.047 263.723 483.662 263.723L483.656 263.729ZM491.451 304.957C490.455 315.017 486.014 330.282 473.856 330.282C461.698 330.282 463.343 312.453 464.522 303.962C465.812 294.904 470.889 281.994 481.828 281.994C491.667 281.994 492.59 293.622 491.457 304.964L491.451 304.957ZM611.455 289.191L601.014 321.934C600.732 319.364 593.651 265.083 593.651 265.083C577.209 265.083 568.406 276.782 563.794 289.119L551.06 322.005C550.994 319.65 549.272 289.471 549.272 289.471C548.237 274.349 534.35 265.148 523.07 265.148L536.583 347.395C553.811 347.33 563.113 335.696 567.98 323.359L578.709 295.399C578.775 296.537 586.151 347.402 586.151 347.402C603.457 347.402 612.719 336.49 617.744 324.576L642 265.154C624.982 265.154 615.968 276.782 611.39 289.191H611.455ZM412.714 228.482L398.696 341.246L395.827 355.158C396.181 355.158 396.613 355.223 396.967 355.223C412.046 355.008 422.776 341.819 424.787 325.194L432.863 260.496C435.313 240.734 423.516 228.469 412.714 228.469V228.482Z" fill="#4353FF"/>
</svg>
