<svg width="318" height="2942" viewBox="0 0 318 2942" fill="none" xmlns="http://www.w3.org/2000/svg">
<circle cx="158.678" cy="158.678" r="155.178" stroke="#EFE9E9" stroke-width="7" stroke-dasharray="2 20"/>
<circle cx="158.678" cy="158.678" r="155.178" stroke="#0D2F3F" stroke-opacity="0.2" stroke-width="7" stroke-dasharray="2 20"/>
<ellipse cx="158.678" cy="159.89" rx="66.6207" ry="67.832" fill="#EFE9E9"/>
<line x1="156.045" y1="334.314" x2="156.045" y2="1061.09" stroke="#EFE9E9" stroke-width="2" stroke-dasharray="4 10"/>
<path d="M315.913 1213.85C316.82 1220.6 317.309 1227.48 317.353 1234.47L313.853 1234.49C313.856 1234.83 313.857 1235.17 313.857 1235.51C313.857 1235.85 313.856 1236.19 313.853 1236.53L317.353 1236.55C317.309 1243.54 316.82 1250.42 315.913 1257.17L312.444 1256.7C312.355 1257.37 312.261 1258.04 312.163 1258.7L315.625 1259.21C314.609 1266.1 313.157 1272.85 311.297 1279.42L307.929 1278.47C307.746 1279.12 307.558 1279.77 307.367 1280.41L310.722 1281.41C308.746 1288.06 306.352 1294.54 303.569 1300.8L300.371 1299.38C300.097 1299.99 299.819 1300.61 299.538 1301.22L302.717 1302.68C299.823 1308.97 296.535 1315.04 292.884 1320.86L289.92 1319C289.561 1319.57 289.199 1320.14 288.834 1320.7L291.774 1322.6C288.025 1328.41 283.912 1333.95 279.468 1339.2L276.796 1336.94C276.36 1337.46 275.921 1337.97 275.479 1338.48L278.121 1340.77C273.597 1345.98 268.743 1350.89 263.592 1355.47L261.267 1352.85C260.763 1353.3 260.256 1353.74 259.746 1354.19L262.037 1356.83C256.831 1361.34 251.331 1365.51 245.571 1369.32L243.642 1366.4C243.079 1366.77 242.515 1367.14 241.947 1367.5L243.838 1370.45C238.055 1374.16 232.018 1377.51 225.757 1380.45L224.267 1377.29C223.657 1377.57 223.046 1377.86 222.432 1378.14L223.881 1381.32C217.641 1384.16 211.185 1386.6 204.546 1388.62L203.529 1385.27C202.886 1385.47 202.24 1385.66 201.593 1385.84L202.566 1389.21C196 1391.11 189.26 1392.59 182.375 1393.63L181.853 1390.17C181.189 1390.27 180.524 1390.36 179.857 1390.46L180.334 1393.92C173.587 1394.85 166.706 1395.35 159.718 1395.4L159.695 1391.9C159.356 1391.9 159.017 1391.9 158.678 1391.9C158.591 1391.9 158.504 1391.9 158.417 1391.9C158.165 1391.9 157.913 1391.9 157.662 1391.9L157.639 1395.4C150.651 1395.35 143.769 1394.85 137.023 1393.92L137.5 1390.46C136.833 1390.36 136.168 1390.27 135.504 1390.17L134.981 1393.63C128.097 1392.59 121.356 1391.11 114.791 1389.21L115.764 1385.84C115.117 1385.66 114.471 1385.47 113.827 1385.27L112.81 1388.62C106.171 1386.6 99.716 1384.16 93.4754 1381.32L94.9243 1378.14C94.3107 1377.86 93.6992 1377.57 93.0899 1377.29L91.5994 1380.45C85.3391 1377.51 79.3014 1374.16 73.5183 1370.45L75.4095 1367.5C74.8421 1367.14 74.2773 1366.77 73.715 1366.4L71.7857 1369.32C66.0254 1365.51 60.5257 1361.34 55.3194 1356.83L57.6103 1354.19C57.1006 1353.74 56.5937 1353.3 56.0897 1352.85L53.7647 1355.47C48.6134 1350.89 43.7593 1345.98 39.2353 1340.77L41.8776 1338.48C41.4354 1337.97 40.9965 1337.46 40.5608 1336.94L37.8891 1339.2C33.4448 1333.95 29.3319 1328.41 25.5829 1322.6L28.5231 1320.7C28.1574 1320.14 27.7952 1319.57 27.4367 1319L24.4722 1320.86C20.822 1315.04 17.5337 1308.97 14.6395 1302.68L17.8191 1301.22C17.5376 1300.61 17.2598 1299.99 16.9859 1299.38L13.7876 1300.8C11.0052 1294.54 8.6106 1288.06 6.63469 1281.41L9.98994 1280.41C9.79839 1279.77 9.61085 1279.12 9.42737 1278.47L6.0595 1279.42C4.19998 1272.85 2.74754 1266.1 1.73139 1259.21L5.19394 1258.7C5.09592 1258.04 5.00206 1257.37 4.91236 1256.7L1.44355 1257.17C0.536554 1250.42 0.0474262 1243.54 0.00328127 1236.55L3.50321 1236.53C3.50107 1236.19 3.5 1235.85 3.5 1235.51C3.5 1235.17 3.50107 1234.83 3.50321 1234.49L0.00328123 1234.47C0.0474258 1227.48 0.536553 1220.6 1.44355 1213.85L4.91236 1214.32C5.00205 1213.65 5.09592 1212.98 5.19394 1212.32L1.73139 1211.81C2.74754 1204.92 4.19998 1198.17 6.0595 1191.6L9.42737 1192.55C9.61085 1191.9 9.79838 1191.25 9.98994 1190.61L6.63469 1189.61C8.6106 1182.96 11.0052 1176.48 13.7876 1170.22L16.9859 1171.65C17.2598 1171.03 17.5376 1170.42 17.8191 1169.8L14.6395 1168.34C17.5337 1162.05 20.822 1155.98 24.4722 1150.16L27.4367 1152.03C27.7952 1151.45 28.1574 1150.89 28.5231 1150.32L25.5829 1148.42C29.3319 1142.61 33.4448 1137.07 37.8892 1131.82L40.5608 1134.08C40.9965 1133.56 41.4354 1133.05 41.8776 1132.54L39.2353 1130.25C43.7594 1125.04 48.6135 1120.13 53.7648 1115.55L56.0897 1118.17C56.5937 1117.72 57.1006 1117.28 57.6104 1116.84L55.3194 1114.19C60.5257 1109.68 66.0254 1105.51 71.7857 1101.7L73.7151 1104.62C74.2773 1104.25 74.8422 1103.88 75.4095 1103.52L73.5183 1100.57C79.3014 1096.86 85.3392 1093.51 91.5994 1090.57L93.09 1093.73C93.6993 1093.45 94.3107 1093.17 94.9243 1092.89L93.4755 1089.7C99.716 1086.86 106.171 1084.42 112.81 1082.4L113.827 1085.75C114.471 1085.56 115.117 1085.36 115.764 1085.18L114.791 1081.82C121.356 1079.92 128.097 1078.43 134.982 1077.39L135.504 1080.85C136.168 1080.75 136.833 1080.66 137.5 1080.57L137.023 1077.1C143.769 1076.17 150.651 1075.67 157.639 1075.62L157.662 1079.12C158 1079.12 158.339 1079.12 158.678 1079.12C159.017 1079.12 159.356 1079.12 159.695 1079.12L159.718 1075.62C166.706 1075.67 173.587 1076.17 180.334 1077.1L179.857 1080.57C180.524 1080.66 181.189 1080.75 181.853 1080.85L182.375 1077.39C189.26 1078.43 196 1079.92 202.566 1081.82L201.593 1085.18C202.24 1085.36 202.886 1085.56 203.529 1085.75L204.546 1082.4C211.185 1084.42 217.641 1086.86 223.881 1089.7L222.432 1092.89C223.046 1093.17 223.657 1093.45 224.267 1093.73L225.757 1090.57C232.018 1093.51 238.055 1096.86 243.838 1100.57L241.947 1103.52C242.515 1103.88 243.079 1104.25 243.642 1104.62L245.571 1101.7C251.331 1105.51 256.831 1109.68 262.037 1114.19L259.746 1116.84C260.256 1117.28 260.763 1117.72 261.267 1118.17L263.592 1115.55C268.743 1120.13 273.597 1125.04 278.121 1130.25L275.479 1132.54C275.921 1133.05 276.36 1133.56 276.796 1134.08L279.468 1131.82C283.912 1137.07 288.025 1142.61 291.774 1148.42L288.834 1150.32C289.199 1150.89 289.561 1151.45 289.92 1152.03L292.884 1150.16C296.535 1155.98 299.823 1162.05 302.717 1168.34L299.538 1169.8C299.819 1170.42 300.097 1171.03 300.371 1171.65L303.569 1170.22C306.352 1176.48 308.746 1182.96 310.722 1189.61L307.367 1190.61C307.558 1191.25 307.746 1191.9 307.929 1192.55L311.297 1191.6C313.157 1198.17 314.609 1204.92 315.625 1211.81L312.163 1212.32C312.261 1212.98 312.355 1213.65 312.444 1214.32L315.913 1213.85Z" stroke="#EFE9E9" stroke-width="7" stroke-dasharray="2 20"/>
<path d="M315.913 1213.85C316.82 1220.6 317.309 1227.48 317.353 1234.47L313.853 1234.49C313.856 1234.83 313.857 1235.17 313.857 1235.51C313.857 1235.85 313.856 1236.19 313.853 1236.53L317.353 1236.55C317.309 1243.54 316.82 1250.42 315.913 1257.17L312.444 1256.7C312.355 1257.37 312.261 1258.04 312.163 1258.7L315.625 1259.21C314.609 1266.1 313.157 1272.85 311.297 1279.42L307.929 1278.47C307.746 1279.12 307.558 1279.77 307.367 1280.41L310.722 1281.41C308.746 1288.06 306.352 1294.54 303.569 1300.8L300.371 1299.38C300.097 1299.99 299.819 1300.61 299.538 1301.22L302.717 1302.68C299.823 1308.97 296.535 1315.04 292.884 1320.86L289.92 1319C289.561 1319.57 289.199 1320.14 288.834 1320.7L291.774 1322.6C288.025 1328.41 283.912 1333.95 279.468 1339.2L276.796 1336.94C276.36 1337.46 275.921 1337.97 275.479 1338.48L278.121 1340.77C273.597 1345.98 268.743 1350.89 263.592 1355.47L261.267 1352.85C260.763 1353.3 260.256 1353.74 259.746 1354.19L262.037 1356.83C256.831 1361.34 251.331 1365.51 245.571 1369.32L243.642 1366.4C243.079 1366.77 242.515 1367.14 241.947 1367.5L243.838 1370.45C238.055 1374.16 232.018 1377.51 225.757 1380.45L224.267 1377.29C223.657 1377.57 223.046 1377.86 222.432 1378.14L223.881 1381.32C217.641 1384.16 211.185 1386.6 204.546 1388.62L203.529 1385.27C202.886 1385.47 202.24 1385.66 201.593 1385.84L202.566 1389.21C196 1391.11 189.26 1392.59 182.375 1393.63L181.853 1390.17C181.189 1390.27 180.524 1390.36 179.857 1390.46L180.334 1393.92C173.587 1394.85 166.706 1395.35 159.718 1395.4L159.695 1391.9C159.356 1391.9 159.017 1391.9 158.678 1391.9C158.591 1391.9 158.504 1391.9 158.417 1391.9C158.165 1391.9 157.913 1391.9 157.662 1391.9L157.639 1395.4C150.651 1395.35 143.769 1394.85 137.023 1393.92L137.5 1390.46C136.833 1390.36 136.168 1390.27 135.504 1390.17L134.981 1393.63C128.097 1392.59 121.356 1391.11 114.791 1389.21L115.764 1385.84C115.117 1385.66 114.471 1385.47 113.827 1385.27L112.81 1388.62C106.171 1386.6 99.716 1384.16 93.4754 1381.32L94.9243 1378.14C94.3107 1377.86 93.6992 1377.57 93.0899 1377.29L91.5994 1380.45C85.3391 1377.51 79.3014 1374.16 73.5183 1370.45L75.4095 1367.5C74.8421 1367.14 74.2773 1366.77 73.715 1366.4L71.7857 1369.32C66.0254 1365.51 60.5257 1361.34 55.3194 1356.83L57.6103 1354.19C57.1006 1353.74 56.5937 1353.3 56.0897 1352.85L53.7647 1355.47C48.6134 1350.89 43.7593 1345.98 39.2353 1340.77L41.8776 1338.48C41.4354 1337.97 40.9965 1337.46 40.5608 1336.94L37.8891 1339.2C33.4448 1333.95 29.3319 1328.41 25.5829 1322.6L28.5231 1320.7C28.1574 1320.14 27.7952 1319.57 27.4367 1319L24.4722 1320.86C20.822 1315.04 17.5337 1308.97 14.6395 1302.68L17.8191 1301.22C17.5376 1300.61 17.2598 1299.99 16.9859 1299.38L13.7876 1300.8C11.0052 1294.54 8.6106 1288.06 6.63469 1281.41L9.98994 1280.41C9.79839 1279.77 9.61085 1279.12 9.42737 1278.47L6.0595 1279.42C4.19998 1272.85 2.74754 1266.1 1.73139 1259.21L5.19394 1258.7C5.09592 1258.04 5.00206 1257.37 4.91236 1256.7L1.44355 1257.17C0.536554 1250.42 0.0474262 1243.54 0.00328127 1236.55L3.50321 1236.53C3.50107 1236.19 3.5 1235.85 3.5 1235.51C3.5 1235.17 3.50107 1234.83 3.50321 1234.49L0.00328123 1234.47C0.0474258 1227.48 0.536553 1220.6 1.44355 1213.85L4.91236 1214.32C5.00205 1213.65 5.09592 1212.98 5.19394 1212.32L1.73139 1211.81C2.74754 1204.92 4.19998 1198.17 6.0595 1191.6L9.42737 1192.55C9.61085 1191.9 9.79838 1191.25 9.98994 1190.61L6.63469 1189.61C8.6106 1182.96 11.0052 1176.48 13.7876 1170.22L16.9859 1171.65C17.2598 1171.03 17.5376 1170.42 17.8191 1169.8L14.6395 1168.34C17.5337 1162.05 20.822 1155.98 24.4722 1150.16L27.4367 1152.03C27.7952 1151.45 28.1574 1150.89 28.5231 1150.32L25.5829 1148.42C29.3319 1142.61 33.4448 1137.07 37.8892 1131.82L40.5608 1134.08C40.9965 1133.56 41.4354 1133.05 41.8776 1132.54L39.2353 1130.25C43.7594 1125.04 48.6135 1120.13 53.7648 1115.55L56.0897 1118.17C56.5937 1117.72 57.1006 1117.28 57.6104 1116.84L55.3194 1114.19C60.5257 1109.68 66.0254 1105.51 71.7857 1101.7L73.7151 1104.62C74.2773 1104.25 74.8422 1103.88 75.4095 1103.52L73.5183 1100.57C79.3014 1096.86 85.3392 1093.51 91.5994 1090.57L93.09 1093.73C93.6993 1093.45 94.3107 1093.17 94.9243 1092.89L93.4755 1089.7C99.716 1086.86 106.171 1084.42 112.81 1082.4L113.827 1085.75C114.471 1085.56 115.117 1085.36 115.764 1085.18L114.791 1081.82C121.356 1079.92 128.097 1078.43 134.982 1077.39L135.504 1080.85C136.168 1080.75 136.833 1080.66 137.5 1080.57L137.023 1077.1C143.769 1076.17 150.651 1075.67 157.639 1075.62L157.662 1079.12C158 1079.12 158.339 1079.12 158.678 1079.12C159.017 1079.12 159.356 1079.12 159.695 1079.12L159.718 1075.62C166.706 1075.67 173.587 1076.17 180.334 1077.1L179.857 1080.57C180.524 1080.66 181.189 1080.75 181.853 1080.85L182.375 1077.39C189.26 1078.43 196 1079.92 202.566 1081.82L201.593 1085.18C202.24 1085.36 202.886 1085.56 203.529 1085.75L204.546 1082.4C211.185 1084.42 217.641 1086.86 223.881 1089.7L222.432 1092.89C223.046 1093.17 223.657 1093.45 224.267 1093.73L225.757 1090.57C232.018 1093.51 238.055 1096.86 243.838 1100.57L241.947 1103.52C242.515 1103.88 243.079 1104.25 243.642 1104.62L245.571 1101.7C251.331 1105.51 256.831 1109.68 262.037 1114.19L259.746 1116.84C260.256 1117.28 260.763 1117.72 261.267 1118.17L263.592 1115.55C268.743 1120.13 273.597 1125.04 278.121 1130.25L275.479 1132.54C275.921 1133.05 276.36 1133.56 276.796 1134.08L279.468 1131.82C283.912 1137.07 288.025 1142.61 291.774 1148.42L288.834 1150.32C289.199 1150.89 289.561 1151.45 289.92 1152.03L292.884 1150.16C296.535 1155.98 299.823 1162.05 302.717 1168.34L299.538 1169.8C299.819 1170.42 300.097 1171.03 300.371 1171.65L303.569 1170.22C306.352 1176.48 308.746 1182.96 310.722 1189.61L307.367 1190.61C307.558 1191.25 307.746 1191.9 307.929 1192.55L311.297 1191.6C313.157 1198.17 314.609 1204.92 315.625 1211.81L312.163 1212.32C312.261 1212.98 312.355 1213.65 312.444 1214.32L315.913 1213.85Z" stroke="#0D2F3F" stroke-opacity="0.2" stroke-width="7" stroke-dasharray="2 20"/>
<ellipse cx="158.678" cy="1235.51" rx="66.6207" ry="67.832" fill="#FF6600"/>
<circle cx="158.678" cy="2324.46" r="155.178" stroke="#EFE9E9" stroke-width="7" stroke-dasharray="2 20"/>
<circle cx="158.678" cy="2324.46" r="155.178" stroke="#0D2F3F" stroke-opacity="0.2" stroke-width="7" stroke-dasharray="2 20"/>
<circle cx="159.89" cy="2323.25" r="67.832" fill="#4353FF"/>
<line x1="156.045" y1="1414.78" x2="158.533" y2="2141.55" stroke="#EFE9E9" stroke-width="2" stroke-dasharray="4 10"/>
<line x1="156.045" y1="2517.06" x2="153.608" y2="2941.01" stroke="#EFE9E9" stroke-width="2" stroke-dasharray="4 10"/>
</svg>
