<svg width="235" height="235" viewBox="0 0 235 235" fill="none" xmlns="http://www.w3.org/2000/svg">
<circle cx="117.5" cy="117.5" r="117.5" fill="black"/>
<path d="M91.0051 177C105.354 177 117 168.115 117 157.167V137.333H91.0051C76.6559 137.333 65.0103 146.219 65.0103 157.167C65.0103 168.115 76.6559 177 91.0051 177Z" fill="#0ACF83"/>
<path d="M65.0103 117.5C65.0103 106.552 76.6559 97.6667 91.0051 97.6667H117V137.333H91.0051C76.6559 137.333 65.0103 128.448 65.0103 117.5Z" fill="#A259FF"/>
<path d="M65.0103 77.8333C65.0103 66.8853 76.6559 58 91.0051 58H117V97.6667H91.0051C76.6559 97.6667 65.0103 88.7813 65.0103 77.8333Z" fill="#F24E1E"/>
<path d="M117 58H142.995C157.344 58 168.99 66.8853 168.99 77.8333C168.99 88.7813 157.344 97.6667 142.995 97.6667H117V58Z" fill="#FF7262"/>
<path d="M168.99 117.5C168.99 128.448 157.344 137.333 142.995 137.333C128.646 137.333 117 128.448 117 117.5C117 106.552 128.646 97.6667 142.995 97.6667C157.344 97.6667 168.99 106.552 168.99 117.5Z" fill="#1ABCFE"/>
</svg>
