<svg width="705" height="602" viewBox="0 0 705 602" fill="none" xmlns="http://www.w3.org/2000/svg">
<rect width="705" height="602" fill="#222222"/>
<path d="M269.271 509C326.805 509 373.5 477.864 373.5 439.5V370H269.271C211.736 370 165.042 401.136 165.042 439.5C165.042 477.864 211.736 509 269.271 509Z" fill="#0ACF83"/>
<path d="M165.042 300.5C165.042 262.136 211.736 231 269.271 231H373.5V370H269.271C211.736 370 165.042 338.864 165.042 300.5Z" fill="#A259FF"/>
<path d="M165.042 161.5C165.042 123.136 211.736 92 269.271 92H373.5V231H269.271C211.736 231 165.042 199.864 165.042 161.5Z" fill="#F24E1E"/>
<path d="M373.5 92H477.729C535.264 92 581.958 123.136 581.958 161.5C581.958 199.864 535.264 231 477.729 231H373.5V92Z" fill="#FF7262"/>
<path d="M581.958 300.5C581.958 338.864 535.264 370 477.729 370C420.195 370 373.5 338.864 373.5 300.5C373.5 262.136 420.195 231 477.729 231C535.264 231 581.958 262.136 581.958 300.5Z" fill="#1ABCFE"/>
</svg>
