<svg width="58" height="58" viewBox="0 0 58 58" fill="none" xmlns="http://www.w3.org/2000/svg">
<circle cx="29" cy="29" r="25.5" fill="#E75242" stroke="#2D2E32" stroke-width="7"/>
<path fill-rule="evenodd" clip-rule="evenodd" d="M26.9555 36.831C26.9609 36.9557 26.9472 37.0773 26.9206 37.2005C26.8737 37.4168 26.7832 37.6458 26.6551 37.8574C26.2909 38.4587 25.6721 38.86 24.8756 38.86C22.999 38.86 22.2626 37.9539 21.3404 35.6849C20.7159 34.1482 20.4213 33.7857 19.72 33.7857V31.756C21.5965 31.756 22.333 32.6621 23.2551 34.9311C23.8797 36.4678 24.1743 36.8303 24.8756 36.8303C24.8756 36.5358 24.8715 36.275 24.8628 35.9217C24.8426 35.0938 24.8403 34.9248 24.877 34.7035C24.8917 34.2203 25.0184 33.8775 25.2725 33.5372C22.9713 33.0442 21.4192 32.0259 20.5284 30.3743L20.1947 29.6019C19.8696 28.6823 19.72 27.6404 19.72 26.4371C19.72 25.0513 20.1493 23.8122 20.9512 22.7764C20.701 21.7918 20.7353 20.5889 21.2876 19.2304L21.4681 18.7865L21.9308 18.6408C21.9927 18.6213 22.068 18.6037 22.1565 18.5901C23.0575 18.4509 24.3395 18.7829 26.0155 19.8396C27.0035 19.6141 28.044 19.5003 29.0915 19.5003C30.0276 19.5003 30.9586 19.5932 31.8476 19.7763C33.4782 18.7713 34.725 18.4561 35.6017 18.5902C35.6892 18.6036 35.7637 18.6209 35.8251 18.6401L36.2907 18.7854L36.4714 19.232C36.9546 20.4262 37.0375 21.5268 36.8617 22.4898C37.7835 23.5784 38.28 24.9168 38.28 26.4371C38.28 27.7188 38.1867 28.6826 37.9185 29.6202L37.6355 30.3847C36.8945 32.0346 35.2604 33.0642 32.7404 33.5547C33.0023 33.9116 33.1244 34.274 33.1244 34.8006V35.8154C33.1244 36.3072 33.1244 36.3224 33.1233 36.8303C33.1257 36.8668 33.1287 36.8846 33.1321 36.8958C33.1316 36.8959 33.129 37.5507 33.1244 38.86C32.2462 38.86 31.5931 38.4384 31.2719 37.7734C31.1054 37.4286 31.0557 37.0994 31.0622 36.8159V34.8006C31.0622 34.7155 31.0592 34.7106 30.8487 34.5033C30.2859 33.9494 30.0311 33.5315 30.0311 32.7709V31.8529L30.9592 31.7611C33.7218 31.488 35.2243 30.7329 35.7225 29.6298L35.9553 29.0034C36.1406 28.3485 36.2178 27.5508 36.2178 26.4371C36.2178 25.2537 35.798 24.2761 35.0042 23.4951L34.5678 23.0658L34.7459 22.4844C34.9041 21.9679 34.9417 21.3567 34.7743 20.6596C34.7465 20.6666 34.7176 20.6741 34.6876 20.6823C34.1355 20.8336 33.4462 21.1582 32.6155 21.7047L32.2367 21.954L31.7944 21.846C30.9389 21.6372 30.0196 21.53 29.0915 21.53C28.0595 21.53 27.0393 21.6593 26.0969 21.9122L25.6369 22.0356L25.2435 21.7706C24.3844 21.1922 23.6707 20.8482 23.0984 20.6875C23.0575 20.676 23.0186 20.6658 22.9816 20.6566C22.7819 21.4634 22.8609 22.1262 23.0631 22.6236L23.3056 23.22L22.8617 23.6909C22.1543 24.4413 21.7822 25.3544 21.7822 26.4371C21.7822 27.4284 21.9001 28.2497 22.1162 28.8685L22.386 29.4971C23.0605 30.7429 24.4932 31.4923 27.0477 31.7618L27.9689 31.859V32.7709C27.9689 33.5315 27.7141 33.9494 27.1513 34.5033C26.9408 34.7106 26.9378 34.7155 26.9378 34.8006L26.92 34.9882C26.9082 35.0497 26.9082 35.2086 26.9245 35.873C26.9319 36.1785 26.9362 36.4204 26.9374 36.6731C26.9497 36.7254 26.9516 36.7592 26.9555 36.831Z" fill="#FFFCFC"/>
<path d="M18.8522 54.4649C18.4795 54.1919 18.201 53.8732 18.0165 53.5091C17.835 53.1397 17.7547 52.7485 17.7757 52.3355C17.7967 51.9225 17.9221 51.5122 18.1521 51.1045C18.3821 50.6969 18.6546 50.4018 18.9697 50.2191C19.2878 50.0312 19.629 49.9599 19.9933 50.0053C20.3606 50.0454 20.7305 50.202 21.1032 50.4751C21.2629 50.5922 21.4214 50.7416 21.5788 50.9234C21.741 51.1087 21.8735 51.3165 21.9761 51.5469C22.0375 51.6805 22.0475 51.8023 22.006 51.9122C21.9693 52.0257 21.9056 52.1083 21.8149 52.16C21.729 52.2152 21.6346 52.231 21.5317 52.2073C21.4336 52.1871 21.3514 52.1084 21.2852 51.9712C21.1392 51.6722 20.9622 51.4465 20.7541 51.294C20.4395 51.0635 20.1347 50.9915 19.8395 51.0781C19.5522 51.163 19.298 51.4014 19.0769 51.7933C18.8587 52.18 18.7709 52.5478 18.8135 52.8966C18.8639 53.2438 19.0464 53.5326 19.361 53.7631C19.5691 53.9156 19.8213 54.0081 20.1177 54.0406C20.2547 54.0524 20.3516 54.1049 20.4084 54.1982C20.4652 54.2916 20.4855 54.3951 20.4692 54.5087C20.4559 54.6171 20.4116 54.7139 20.3362 54.799C20.2638 54.8789 20.1639 54.9165 20.0366 54.9118C19.8179 54.8993 19.6058 54.8509 19.4002 54.7668C19.1946 54.6826 19.0119 54.582 18.8522 54.4649Z" fill="white"/>
<path d="M25.3013 56.6273C24.8529 56.5445 24.4766 56.3804 24.1724 56.1352C23.8682 55.8901 23.6487 55.5813 23.514 55.2089C23.3801 54.8306 23.3461 54.4097 23.412 53.9464C23.4779 53.4831 23.6264 53.099 23.8574 52.7942C24.0885 52.4894 24.3823 52.2754 24.7389 52.1523C25.0955 52.0292 25.4981 52.0091 25.9465 52.092C26.3949 52.1748 26.7712 52.3388 27.0754 52.584C27.3796 52.8292 27.5991 53.138 27.7338 53.5104C27.8686 53.8828 27.903 54.3006 27.8371 54.764C27.7712 55.2273 27.6223 55.6143 27.3904 55.9251C27.1593 56.2299 26.8654 56.4438 26.5088 56.5669C26.1522 56.69 25.7497 56.7101 25.3013 56.6273ZM25.4217 55.7808C25.7521 55.8419 26.0345 55.7721 26.269 55.5716C26.5042 55.3651 26.6552 55.0272 26.722 54.5579C26.7896 54.0827 26.7395 53.7107 26.5719 53.442C26.4051 53.1673 26.1565 52.9995 25.8261 52.9384C25.4956 52.8774 25.2132 52.9471 24.9788 53.1477C24.7453 53.3423 24.5947 53.6772 24.5271 54.1524C24.4603 54.6217 24.51 54.9966 24.6759 55.2773C24.8427 55.5519 25.0913 55.7198 25.4217 55.7808Z" fill="white"/>
<path d="M32.0599 56.1278C31.6891 56.2277 31.3429 56.2248 31.0212 56.1191C30.7054 56.0119 30.4345 55.812 30.2086 55.5192C29.9815 55.2206 29.8204 54.8422 29.7254 54.384C29.6291 53.9199 29.6251 53.5022 29.7132 53.1311C29.8002 52.7541 29.9638 52.437 30.2041 52.18C30.4502 51.9214 30.7587 51.7421 31.1294 51.6422C31.4307 51.5611 31.717 51.5553 31.9884 51.6248C32.2597 51.6944 32.4794 51.8244 32.6473 52.0149L32.2178 49.944C32.141 49.5739 32.2822 49.3404 32.6414 49.2436C33.0064 49.1453 33.2273 49.2812 33.304 49.6513L34.3899 54.8859C34.4679 55.2619 34.3273 55.4983 33.9681 55.595C33.6089 55.6918 33.3903 55.5522 33.3123 55.1762L33.2739 54.9912C33.201 55.2589 33.0575 55.4961 32.8434 55.7026C32.6281 55.9033 32.3669 56.045 32.0599 56.1278ZM32.1904 55.2086C32.5148 55.1212 32.7511 54.9335 32.8994 54.6454C33.0464 54.3515 33.0718 53.9724 32.9755 53.5083C32.878 53.0383 32.707 52.7153 32.4625 52.5393C32.2168 52.3573 31.9317 52.3101 31.6073 52.3975C31.2828 52.4849 31.0465 52.6726 30.8983 52.9607C30.7488 53.2429 30.7228 53.619 30.8203 54.089C30.9166 54.5531 31.0882 54.8791 31.3352 55.0669C31.5809 55.2488 31.866 55.296 32.1904 55.2086Z" fill="white"/>
<path d="M38.7918 54.2166C38.4013 54.5257 38.0165 54.7126 37.6375 54.7772C37.2584 54.8419 36.9023 54.7896 36.569 54.6205C36.2405 54.4476 35.9544 54.1614 35.7109 53.7618C35.4735 53.3724 35.3388 52.974 35.3066 52.5665C35.2791 52.1553 35.3448 51.7653 35.5036 51.3966C35.664 51.0189 35.9112 50.6979 36.2452 50.4335C36.7344 50.0461 37.2232 49.9098 37.7116 50.0245C38.2046 50.1355 38.6292 50.483 38.9852 51.067C39.1007 51.2566 39.0456 51.4407 38.8198 51.6195L36.6888 53.3066C37.1637 53.9256 37.7211 53.9819 38.3609 53.4754C38.4832 53.3785 38.6102 53.2551 38.742 53.1052C38.8754 52.9465 38.9853 52.7721 39.0718 52.5821C39.1472 52.4084 39.2367 52.3034 39.3401 52.2672C39.4404 52.2257 39.532 52.233 39.6149 52.2889C39.7025 52.3411 39.7634 52.4295 39.7976 52.5544C39.8334 52.6703 39.8191 52.807 39.7546 52.9644C39.6587 53.2074 39.5197 53.4428 39.3376 53.6705C39.1572 53.8893 38.9752 54.0713 38.7918 54.2166ZM36.6786 51.0588C36.4199 51.2636 36.2636 51.5164 36.2099 51.8172C36.1561 52.1181 36.2033 52.4301 36.3515 52.7533L38.0874 51.379C37.878 51.0814 37.6529 50.9065 37.4118 50.8543C37.1723 50.7932 36.9279 50.8614 36.6786 51.0588Z" fill="white"/>
</svg>
