<svg width="262" height="195" viewBox="0 0 262 195" fill="none" xmlns="http://www.w3.org/2000/svg">
<rect x="10.8613" y="98.5756" width="82.1872" height="12.2668" rx="6.13338" transform="rotate(-44.4545 10.8613 98.5756)" fill="#C4C4C4"/>
<rect x="19.3124" y="90.049" width="82.1872" height="12.2668" rx="6.13338" transform="rotate(45.5455 19.3124 90.049)" fill="#E7524E"/>
<rect x="250.358" y="101.588" width="88.7376" height="13.2444" rx="6.62221" transform="rotate(136.412 250.358 101.588)" fill="#C4C4C4"/>
<rect x="241.095" y="110.655" width="88.7376" height="13.2444" rx="6.62221" transform="rotate(-133.588 241.095 110.655)" fill="#E7524E"/>
<path d="M81.6459 80.5508C81.6459 78.9641 81.9632 77.5828 82.5979 76.4068C83.2326 75.2121 84.1099 74.2881 85.2299 73.6348C86.3686 72.9815 87.6659 72.6548 89.1219 72.6548C91.0072 72.6548 92.5566 73.1121 93.7699 74.0268C95.0019 74.9415 95.8139 76.2108 96.2059 77.8348L93.4619 77.8348C93.2006 76.9015 92.6872 76.1641 91.9219 75.6228C91.1752 75.0815 90.2419 74.8108 89.1219 74.8108C87.6659 74.8108 86.4899 75.3148 85.5939 76.3228C84.6979 77.3121 84.2499 78.7215 84.2499 80.5508C84.2499 82.3988 84.6979 83.8268 85.5939 84.8348C86.4899 85.8428 87.6659 86.3468 89.1219 86.3468C90.2419 86.3468 91.1752 86.0855 91.9219 85.5628C92.6686 85.0401 93.1819 84.2935 93.4619 83.3228L96.2059 83.3228C95.7952 84.8908 94.9739 86.1508 93.7419 87.1028C92.5099 88.0361 90.9699 88.5028 89.1219 88.5028C87.6659 88.5028 86.3686 88.1761 85.2299 87.5228C84.1099 86.8695 83.2326 85.9455 82.5979 84.7508C81.9632 83.5561 81.6459 82.1561 81.6459 80.5508ZM106.298 88.5028C104.86 88.5028 103.554 88.1761 102.378 87.5228C101.22 86.8695 100.306 85.9455 99.6337 84.7508C98.9804 83.5375 98.6537 82.1375 98.6537 80.5508C98.6537 78.9828 98.9897 77.6015 99.6617 76.4068C100.352 75.1935 101.286 74.2695 102.462 73.6348C103.638 72.9815 104.954 72.6548 106.41 72.6548C107.866 72.6548 109.182 72.9815 110.358 73.6348C111.534 74.2695 112.458 75.1841 113.13 76.3788C113.82 77.5735 114.166 78.9641 114.166 80.5508C114.166 82.1375 113.811 83.5375 113.102 84.7508C112.411 85.9455 111.468 86.8695 110.274 87.5228C109.079 88.1761 107.754 88.5028 106.298 88.5028ZM106.298 86.2628C107.212 86.2628 108.071 86.0481 108.874 85.6188C109.676 85.1895 110.32 84.5455 110.806 83.6868C111.31 82.8281 111.562 81.7828 111.562 80.5508C111.562 79.3188 111.319 78.2735 110.834 77.4148C110.348 76.5561 109.714 75.9215 108.93 75.5108C108.146 75.0815 107.296 74.8668 106.382 74.8668C105.448 74.8668 104.59 75.0815 103.806 75.5108C103.04 75.9215 102.424 76.5561 101.958 77.4148C101.491 78.2735 101.258 79.3188 101.258 80.5508C101.258 81.8015 101.482 82.8561 101.93 83.7148C102.396 84.5735 103.012 85.2175 103.778 85.6468C104.543 86.0575 105.383 86.2628 106.298 86.2628ZM116.564 80.5228C116.564 78.9548 116.881 77.5828 117.516 76.4068C118.151 75.2121 119.019 74.2881 120.12 73.6348C121.24 72.9815 122.491 72.6548 123.872 72.6548C125.067 72.6548 126.177 72.9348 127.204 73.4948C128.231 74.0361 129.015 74.7548 129.556 75.6508L129.556 67.5308L132.132 67.5308L132.132 88.2508L129.556 88.2508L129.556 85.3668C129.052 86.2815 128.305 87.0375 127.316 87.6348C126.327 88.2135 125.169 88.5028 123.844 88.5028C122.481 88.5028 121.24 88.1668 120.12 87.4948C119.019 86.8228 118.151 85.8801 117.516 84.6668C116.881 83.4535 116.564 82.0721 116.564 80.5228ZM129.556 80.5508C129.556 79.3935 129.323 78.3855 128.856 77.5268C128.389 76.6681 127.755 76.0148 126.952 75.5668C126.168 75.1001 125.3 74.8668 124.348 74.8668C123.396 74.8668 122.528 75.0908 121.744 75.5388C120.96 75.9868 120.335 76.6401 119.868 77.4988C119.401 78.3575 119.168 79.3655 119.168 80.5228C119.168 81.6988 119.401 82.7255 119.868 83.6028C120.335 84.4615 120.96 85.1241 121.744 85.5908C122.528 86.0388 123.396 86.2628 124.348 86.2628C125.3 86.2628 126.168 86.0388 126.952 85.5908C127.755 85.1241 128.389 84.4615 128.856 83.6028C129.323 82.7255 129.556 81.7081 129.556 80.5508ZM150.438 79.9908C150.438 80.4761 150.41 80.9895 150.354 81.5308L138.09 81.5308C138.183 83.0428 138.696 84.2281 139.63 85.0868C140.582 85.9268 141.73 86.3468 143.074 86.3468C144.175 86.3468 145.09 86.0948 145.818 85.5908C146.564 85.0681 147.087 84.3775 147.386 83.5188L150.13 83.5188C149.719 84.9935 148.898 86.1975 147.666 87.1308C146.434 88.0455 144.903 88.5028 143.074 88.5028C141.618 88.5028 140.311 88.1761 139.154 87.5228C138.015 86.8695 137.119 85.9455 136.466 84.7508C135.812 83.5375 135.486 82.1375 135.486 80.5508C135.486 78.9641 135.803 77.5735 136.438 76.3788C137.072 75.1841 137.959 74.2695 139.098 73.6348C140.255 72.9815 141.58 72.6548 143.074 72.6548C144.53 72.6548 145.818 72.9721 146.938 73.6068C148.058 74.2415 148.916 75.1188 149.514 76.2388C150.13 77.3401 150.438 78.5908 150.438 79.9908ZM147.806 79.4588C147.806 78.4881 147.591 77.6575 147.162 76.9668C146.732 76.2575 146.144 75.7255 145.398 75.3708C144.67 74.9975 143.858 74.8108 142.962 74.8108C141.674 74.8108 140.572 75.2215 139.658 76.0428C138.762 76.8641 138.248 78.0028 138.118 79.4588L147.806 79.4588ZM162.582 70.4148C162.097 70.4148 161.686 70.2468 161.35 69.9108C161.014 69.5748 160.846 69.1641 160.846 68.6788C160.846 68.1935 161.014 67.7828 161.35 67.4468C161.686 67.1108 162.097 66.9428 162.582 66.9428C163.049 66.9428 163.441 67.1108 163.758 67.4468C164.094 67.7828 164.262 68.1935 164.262 68.6788C164.262 69.1641 164.094 69.5748 163.758 69.9108C163.441 70.2468 163.049 70.4148 162.582 70.4148ZM163.814 72.9068L163.814 88.2508L161.266 88.2508L161.266 72.9068L163.814 72.9068ZM171.264 75.0068L171.264 84.0508C171.264 84.7975 171.423 85.3295 171.74 85.6468C172.058 85.9455 172.608 86.0948 173.392 86.0948L175.268 86.0948L175.268 88.2508L172.972 88.2508C171.554 88.2508 170.49 87.9241 169.78 87.2708C169.071 86.6175 168.716 85.5441 168.716 84.0508L168.716 75.0068L166.728 75.0068L166.728 72.9068L168.716 72.9068L168.716 69.0428L171.264 69.0428L171.264 72.9068L175.268 72.9068L175.268 75.0068L171.264 75.0068Z" fill="#FCFCFC"/>
<path d="M92.6839 109.871C92.7399 109.852 92.8332 109.843 92.9639 109.843C93.2439 109.843 93.4586 109.936 93.6079 110.123C93.7572 110.309 93.8319 110.561 93.8319 110.879C93.8319 111.457 93.7199 111.915 93.4959 112.251C93.2719 112.568 92.9359 112.801 92.4879 112.951C91.6292 113.231 90.7146 113.371 89.7439 113.371C88.9226 113.371 88.1479 113.259 87.4199 113.035C86.8786 113.912 86.2812 114.817 85.6279 115.751C84.8812 116.815 84.2372 117.543 83.6959 117.935C83.1732 118.327 82.5759 118.523 81.9039 118.523C81.1572 118.523 80.5879 118.233 80.1959 117.655C79.8226 117.076 79.5892 116.124 79.4959 114.799L79.3559 112.755C78.7772 114.323 78.2546 115.517 77.7879 116.339C77.3399 117.16 76.8826 117.729 76.4159 118.047C75.9679 118.364 75.4359 118.523 74.8199 118.523C74.0546 118.523 73.4479 118.224 72.9999 117.627C72.5706 117.029 72.2999 116.087 72.1879 114.799C71.9639 112.185 71.8519 109.899 71.8519 107.939L71.8519 106.959C71.8706 106.343 72.0386 105.913 72.3559 105.671C72.6732 105.428 73.1492 105.307 73.7839 105.307C74.2692 105.307 74.6239 105.419 74.8479 105.643C75.0906 105.848 75.2119 106.203 75.2119 106.707C75.2119 108.853 75.3426 111.644 75.6039 115.079C76.8732 112.409 78.0399 109.628 79.1039 106.735C79.3092 106.175 79.5519 105.801 79.8319 105.615C80.1306 105.409 80.4852 105.307 80.8959 105.307C81.3999 105.307 81.7452 105.409 81.9319 105.615C82.1372 105.82 82.2399 106.184 82.2399 106.707C82.2399 108.853 82.3706 111.644 82.6319 115.079C83.7519 113.417 84.5919 112.092 85.1519 111.103C84.8719 110.561 84.7319 109.917 84.7319 109.171C84.7319 108.536 84.8719 107.92 85.1519 107.323C85.4319 106.725 85.8146 106.24 86.2999 105.867C86.7852 105.493 87.3359 105.307 87.9519 105.307C88.4932 105.307 88.9319 105.503 89.2679 105.895C89.6039 106.268 89.7719 106.819 89.7719 107.547C89.7719 108.387 89.5479 109.348 89.0999 110.431C89.8092 110.393 90.7519 110.253 91.9279 110.011L92.6839 109.871ZM95.0694 103.487C94.2854 103.487 93.6974 103.309 93.3054 102.955C92.9134 102.581 92.7174 102.068 92.7174 101.415C92.7174 100.761 92.9694 100.22 93.4734 99.7908C93.996 99.3428 94.64 99.1188 95.4054 99.1188C96.096 99.1188 96.656 99.2868 97.0854 99.6228C97.5147 99.9588 97.7294 100.435 97.7294 101.051C97.7294 101.797 97.4867 102.395 97.0014 102.843C96.516 103.272 95.872 103.487 95.0694 103.487ZM94.8454 118.523C93.632 118.523 92.7454 118.093 92.1854 117.235C91.644 116.376 91.3734 115.237 91.3734 113.819C91.3734 112.979 91.476 111.905 91.6814 110.599C91.9054 109.273 92.1854 108.041 92.5214 106.903C92.6894 106.305 92.9134 105.895 93.1934 105.671C93.4734 105.447 93.9214 105.335 94.5374 105.335C95.4894 105.335 95.9654 105.652 95.9654 106.287C95.9654 106.753 95.788 107.836 95.4334 109.535C94.9854 111.588 94.7614 112.979 94.7614 113.707C94.7614 114.267 94.836 114.696 94.9854 114.995C95.1347 115.293 95.3867 115.443 95.7414 115.443C96.0774 115.443 96.4974 115.209 97.0014 114.743C97.5054 114.276 98.1774 113.539 99.0174 112.531C99.2414 112.269 99.4934 112.139 99.7734 112.139C100.016 112.139 100.203 112.251 100.333 112.475C100.483 112.699 100.557 113.007 100.557 113.399C100.557 114.145 100.38 114.724 100.025 115.135C98.1774 117.393 96.4507 118.523 94.8454 118.523ZM110.78 112.139C111.023 112.139 111.209 112.251 111.34 112.475C111.489 112.699 111.564 113.007 111.564 113.399C111.564 114.145 111.387 114.724 111.032 115.135C110.229 116.124 109.352 116.936 108.4 117.571C107.448 118.205 106.356 118.523 105.124 118.523C101.316 118.523 99.412 115.844 99.412 110.487C99.412 109.665 99.44 108.835 99.496 107.995L98.404 107.995C97.844 107.995 97.4613 107.892 97.256 107.687C97.0693 107.481 96.976 107.155 96.976 106.707C96.976 105.661 97.396 105.139 98.236 105.139L99.832 105.139C100.149 103.085 100.635 101.209 101.288 99.5108C101.941 97.8122 102.725 96.4588 103.64 95.4508C104.573 94.4428 105.572 93.9388 106.636 93.9388C107.42 93.9388 108.036 94.2842 108.484 94.9748C108.932 95.6655 109.156 96.5335 109.156 97.5788C109.156 100.472 107.943 102.992 105.516 105.139L108.652 105.139C108.951 105.139 109.165 105.204 109.296 105.335C109.427 105.465 109.492 105.708 109.492 106.063C109.492 107.351 108.437 107.995 106.328 107.995L102.912 107.995C102.875 108.928 102.856 109.656 102.856 110.179C102.856 112.12 103.08 113.483 103.528 114.267C103.995 115.051 104.723 115.443 105.712 115.443C106.515 115.443 107.224 115.2 107.84 114.715C108.456 114.229 109.184 113.501 110.024 112.531C110.248 112.269 110.5 112.139 110.78 112.139ZM105.88 96.6268C105.6 96.6268 105.283 96.9815 104.928 97.6908C104.592 98.3815 104.265 99.3522 103.948 100.603C103.649 101.835 103.397 103.207 103.192 104.719C104.293 103.767 105.115 102.703 105.656 101.527C106.216 100.332 106.496 99.2495 106.496 98.2788C106.496 97.1775 106.291 96.6268 105.88 96.6268ZM119.196 105.335C119.794 105.335 120.242 105.493 120.54 105.811C120.858 106.109 121.016 106.557 121.016 107.155C121.016 107.64 120.914 108.555 120.708 109.899C120.522 111.037 120.372 112.12 120.26 113.147C120.148 114.155 120.092 115.284 120.092 116.535C120.092 117.244 119.943 117.757 119.644 118.075C119.364 118.373 118.898 118.523 118.244 118.523C117.628 118.523 117.18 118.364 116.9 118.047C116.62 117.729 116.48 117.253 116.48 116.619C116.48 115.872 116.611 114.64 116.872 112.923C117.096 111.429 117.208 110.477 117.208 110.067C117.208 109.768 117.106 109.619 116.9 109.619C116.658 109.619 116.312 109.936 115.864 110.571C115.416 111.187 114.968 112.008 114.52 113.035C114.072 114.061 113.708 115.144 113.428 116.283C113.223 117.16 112.98 117.757 112.7 118.075C112.439 118.373 112.019 118.523 111.44 118.523C110.862 118.523 110.432 118.317 110.152 117.907C109.891 117.477 109.714 116.824 109.62 115.947C109.527 115.069 109.48 113.781 109.48 112.083C109.48 109.208 109.77 106.212 110.348 103.095C110.946 99.9775 111.814 97.3642 112.952 95.2548C114.11 93.1268 115.491 92.0628 117.096 92.0628C117.955 92.0628 118.646 92.4362 119.168 93.1828C119.71 93.9108 119.98 94.8628 119.98 96.0388C119.98 97.9242 119.43 99.8842 118.328 101.919C117.227 103.935 115.435 106.296 112.952 109.003C112.896 109.973 112.868 110.972 112.868 111.999C113.484 110.412 114.166 109.124 114.912 108.135C115.678 107.127 116.424 106.408 117.152 105.979C117.899 105.549 118.58 105.335 119.196 105.335ZM116.508 94.8348C116.172 94.8348 115.799 95.3202 115.388 96.2908C114.978 97.2428 114.576 98.5402 114.184 100.183C113.811 101.807 113.503 103.58 113.26 105.503C114.418 104.14 115.37 102.656 116.116 101.051C116.882 99.4455 117.264 97.9895 117.264 96.6828C117.264 96.0855 117.199 95.6282 117.068 95.3108C116.938 94.9935 116.751 94.8348 116.508 94.8348ZM150.525 96.9068C150.525 97.4668 150.404 97.8868 150.161 98.1668C149.937 98.4468 149.564 98.5868 149.041 98.5868C149.004 98.9788 148.92 99.6602 148.789 100.631C148.602 101.937 148.5 102.665 148.481 102.815C146.82 115.191 143.357 121.379 138.093 121.379C136.544 121.379 135.33 120.94 134.453 120.063C133.594 119.185 133.165 118.084 133.165 116.759C133.165 114.388 134.173 112.297 136.189 110.487C138.205 108.657 140.856 107.145 144.141 105.951C144.346 104.625 144.505 103.44 144.617 102.395L145.121 98.1668C144.001 98.0548 142.956 97.9988 141.985 97.9988C139.39 97.9988 137.477 98.2508 136.245 98.7548C135.013 99.2588 134.397 100.08 134.397 101.219C134.397 101.779 134.584 102.385 134.957 103.039C135.069 103.225 135.125 103.421 135.125 103.627C135.125 104.019 134.92 104.373 134.509 104.691C134.117 104.989 133.688 105.139 133.221 105.139C132.624 105.139 132.166 104.887 131.849 104.383C131.326 103.524 131.065 102.525 131.065 101.387C131.065 96.9068 134.985 94.6668 142.825 94.6668C145.102 94.6668 147.137 94.8908 148.929 95.3388C149.993 95.6002 150.525 96.1228 150.525 96.9068ZM138.457 118.383C139.372 118.383 140.286 117.692 141.201 116.311C142.116 114.929 142.918 112.512 143.609 109.059C139.054 111.056 136.777 113.501 136.777 116.395C136.777 117.029 136.926 117.524 137.225 117.879C137.524 118.215 137.934 118.383 138.457 118.383ZM162.46 112.139C162.702 112.139 162.889 112.251 163.02 112.475C163.169 112.699 163.244 113.007 163.244 113.399C163.244 114.145 163.066 114.724 162.712 115.135C162.021 115.975 161.041 116.749 159.772 117.459C158.521 118.168 157.177 118.523 155.74 118.523C153.78 118.523 152.258 117.991 151.176 116.927C150.093 115.863 149.552 114.407 149.552 112.559C149.552 111.271 149.822 110.076 150.364 108.975C150.905 107.855 151.652 106.968 152.604 106.315C153.574 105.661 154.666 105.335 155.88 105.335C156.962 105.335 157.83 105.661 158.484 106.315C159.137 106.949 159.464 107.817 159.464 108.919C159.464 110.207 158.997 111.317 158.064 112.251C157.149 113.165 155.59 113.893 153.388 114.435C153.854 115.293 154.741 115.723 156.048 115.723C156.888 115.723 157.84 115.433 158.904 114.855C159.986 114.257 160.92 113.483 161.704 112.531C161.928 112.269 162.18 112.139 162.46 112.139ZM155.404 108.079C154.713 108.079 154.125 108.48 153.64 109.283C153.173 110.085 152.94 111.056 152.94 112.195L152.94 112.251C154.041 111.989 154.909 111.597 155.544 111.075C156.178 110.552 156.496 109.945 156.496 109.255C156.496 108.9 156.393 108.62 156.188 108.415C156.001 108.191 155.74 108.079 155.404 108.079ZM162.952 118.523C162.243 118.523 161.739 118.149 161.44 117.403C161.16 116.656 161.02 115.461 161.02 113.819C161.02 111.392 161.365 109.087 162.056 106.903C162.224 106.361 162.495 105.969 162.868 105.727C163.26 105.465 163.801 105.335 164.492 105.335C164.865 105.335 165.127 105.381 165.276 105.475C165.425 105.568 165.5 105.745 165.5 106.007C165.5 106.305 165.36 106.977 165.08 108.023C164.893 108.769 164.744 109.423 164.632 109.983C164.52 110.543 164.427 111.233 164.352 112.055C164.968 110.449 165.659 109.143 166.424 108.135C167.189 107.127 167.936 106.408 168.664 105.979C169.411 105.549 170.092 105.335 170.708 105.335C171.921 105.335 172.528 105.941 172.528 107.155C172.528 107.397 172.444 107.985 172.276 108.919C172.127 109.665 172.052 110.132 172.052 110.319C172.052 110.972 172.285 111.299 172.752 111.299C173.275 111.299 173.947 110.888 174.768 110.067C175.011 109.824 175.263 109.703 175.524 109.703C175.767 109.703 175.953 109.815 176.084 110.039C176.233 110.244 176.308 110.524 176.308 110.879C176.308 111.569 176.121 112.111 175.748 112.503C175.225 113.044 174.609 113.511 173.9 113.903C173.209 114.276 172.472 114.463 171.688 114.463C170.699 114.463 169.943 114.211 169.42 113.707C168.916 113.203 168.664 112.521 168.664 111.663C168.664 111.383 168.692 111.103 168.748 110.823C168.785 110.449 168.804 110.197 168.804 110.067C168.804 109.768 168.701 109.619 168.496 109.619C168.216 109.619 167.843 109.936 167.376 110.571C166.928 111.187 166.48 112.008 166.032 113.035C165.584 114.061 165.22 115.144 164.94 116.283C164.735 117.16 164.492 117.757 164.212 118.075C163.951 118.373 163.531 118.523 162.952 118.523ZM175.694 118.523C174.985 118.523 174.481 118.149 174.182 117.403C173.902 116.656 173.762 115.461 173.762 113.819C173.762 111.392 174.107 109.087 174.798 106.903C174.966 106.361 175.237 105.969 175.61 105.727C176.002 105.465 176.543 105.335 177.234 105.335C177.607 105.335 177.869 105.381 178.018 105.475C178.167 105.568 178.242 105.745 178.242 106.007C178.242 106.305 178.102 106.977 177.822 108.023C177.635 108.769 177.486 109.423 177.374 109.983C177.262 110.543 177.169 111.233 177.094 112.055C177.71 110.449 178.401 109.143 179.166 108.135C179.931 107.127 180.678 106.408 181.406 105.979C182.153 105.549 182.834 105.335 183.45 105.335C184.663 105.335 185.27 105.941 185.27 107.155C185.27 107.397 185.186 107.985 185.018 108.919C184.869 109.665 184.794 110.132 184.794 110.319C184.794 110.972 185.027 111.299 185.494 111.299C186.017 111.299 186.689 110.888 187.51 110.067C187.753 109.824 188.005 109.703 188.266 109.703C188.509 109.703 188.695 109.815 188.826 110.039C188.975 110.244 189.05 110.524 189.05 110.879C189.05 111.569 188.863 112.111 188.49 112.503C187.967 113.044 187.351 113.511 186.642 113.903C185.951 114.276 185.214 114.463 184.43 114.463C183.441 114.463 182.685 114.211 182.162 113.707C181.658 113.203 181.406 112.521 181.406 111.663C181.406 111.383 181.434 111.103 181.49 110.823C181.527 110.449 181.546 110.197 181.546 110.067C181.546 109.768 181.443 109.619 181.238 109.619C180.958 109.619 180.585 109.936 180.118 110.571C179.67 111.187 179.222 112.008 178.774 113.035C178.326 114.061 177.962 115.144 177.682 116.283C177.477 117.16 177.234 117.757 176.954 118.075C176.693 118.373 176.273 118.523 175.694 118.523ZM196.248 105.335C196.678 105.335 196.976 105.391 197.144 105.503C197.312 105.615 197.396 105.801 197.396 106.063C197.396 106.511 197.154 108.107 196.668 110.851C196.239 113.483 195.987 115.041 195.912 115.527C195.222 120.324 194.27 124.123 193.056 126.923C191.843 129.723 190.228 131.123 188.212 131.123C187.26 131.123 186.486 130.824 185.888 130.227C185.291 129.648 184.992 128.883 184.992 127.931C184.992 127.053 185.188 126.157 185.58 125.243C185.991 124.328 186.738 123.273 187.82 122.079C188.922 120.903 190.471 119.549 192.468 118.019L192.552 117.375C192.683 116.684 192.832 115.695 193 114.407C192.627 115.751 192.104 116.777 191.432 117.487C190.76 118.177 190.051 118.523 189.304 118.523C188.464 118.523 187.774 118.14 187.232 117.375C186.71 116.591 186.448 115.62 186.448 114.463C186.448 113.063 186.542 111.784 186.728 110.627C186.915 109.451 187.223 108.209 187.652 106.903C187.839 106.343 188.1 105.941 188.436 105.699C188.772 105.456 189.304 105.335 190.032 105.335C190.443 105.335 190.723 105.4 190.872 105.531C191.04 105.661 191.124 105.857 191.124 106.119C191.124 106.268 191.022 106.772 190.816 107.631C190.63 108.321 190.48 108.947 190.368 109.507C190.219 110.272 190.088 111.009 189.976 111.719C189.864 112.409 189.808 112.979 189.808 113.427C189.808 114.136 190.004 114.491 190.396 114.491C190.676 114.491 191.022 114.211 191.432 113.651C191.862 113.091 192.31 112.241 192.776 111.103C193.262 109.964 193.728 108.564 194.176 106.903C194.326 106.343 194.55 105.941 194.848 105.699C195.166 105.456 195.632 105.335 196.248 105.335ZM188.52 128.407C188.987 128.407 189.51 127.865 190.088 126.783C190.667 125.7 191.246 123.899 191.824 121.379C190.387 122.592 189.342 123.693 188.688 124.683C188.054 125.691 187.736 126.568 187.736 127.315C187.736 127.632 187.792 127.893 187.904 128.099C188.035 128.304 188.24 128.407 188.52 128.407Z" fill="#E7524E"/>
<rect width="52.2192" height="1.5207" rx="0.760348" transform="matrix(0.999787 0.0206382 0.0206382 -0.999787 87.3972 87.6444)" fill="#E7524E"/>
</svg>
